<?xml version="1.0" encoding="UTF-8" standalone="no"?>
<!-- Uploaded to: SVG Repo, www.svgrepo.com, Generator: SVG Repo Mixer Tools -->

<svg
   height="16"
   width="16"
   version="1.1"
   id="Layer_1"
   viewBox="0 0 10.24 10.24"
   xml:space="preserve"
   xmlns:xlink="http://www.w3.org/1999/xlink"
   xmlns="http://www.w3.org/2000/svg"
   xmlns:svg="http://www.w3.org/2000/svg"><defs
   id="defs17"><linearGradient
     id="linearGradient29"><stop
       style="stop-color:#000000;stop-opacity:1;"
       offset="0"
       id="stop29" /><stop
       style="stop-color:#000000;stop-opacity:0;"
       offset="1"
       id="stop30" /></linearGradient><linearGradient
     xlink:href="#linearGradient29"
     id="linearGradient30"
     x1="314.98431"
     y1="252.192"
     x2="314.98431"
     y2="190.166"
     gradientUnits="userSpaceOnUse" /><linearGradient
     xlink:href="#linearGradient29"
     id="linearGradient31"
     x1="314.98431"
     y1="252.192"
     x2="314.98431"
     y2="190.166"
     gradientUnits="userSpaceOnUse" /><linearGradient
     xlink:href="#linearGradient29"
     id="linearGradient32"
     x1="314.98431"
     y1="252.192"
     x2="314.98431"
     y2="190.166"
     gradientUnits="userSpaceOnUse" /><linearGradient
     xlink:href="#linearGradient29"
     id="linearGradient33"
     x1="314.98431"
     y1="252.192"
     x2="314.98431"
     y2="190.166"
     gradientUnits="userSpaceOnUse" /><linearGradient
     xlink:href="#linearGradient29"
     id="linearGradient34"
     x1="314.98431"
     y1="252.192"
     x2="314.98431"
     y2="190.166"
     gradientUnits="userSpaceOnUse" /><linearGradient
     xlink:href="#linearGradient29"
     id="linearGradient35"
     x1="314.98431"
     y1="252.192"
     x2="314.98431"
     y2="190.166"
     gradientUnits="userSpaceOnUse" /><linearGradient
     xlink:href="#linearGradient29"
     id="linearGradient36"
     x1="314.98431"
     y1="252.192"
     x2="314.98431"
     y2="190.166"
     gradientUnits="userSpaceOnUse" /><linearGradient
     xlink:href="#linearGradient29"
     id="linearGradient37"
     x1="314.98431"
     y1="252.192"
     x2="314.98431"
     y2="190.166"
     gradientUnits="userSpaceOnUse" /><linearGradient
     xlink:href="#linearGradient29"
     id="linearGradient38"
     x1="314.98431"
     y1="252.192"
     x2="314.98431"
     y2="190.166"
     gradientUnits="userSpaceOnUse" /><linearGradient
     xlink:href="#linearGradient29"
     id="linearGradient39"
     x1="314.98431"
     y1="252.192"
     x2="314.98431"
     y2="190.166"
     gradientUnits="userSpaceOnUse" /><linearGradient
     xlink:href="#linearGradient29"
     id="linearGradient40"
     x1="314.98431"
     y1="252.192"
     x2="314.98431"
     y2="190.166"
     gradientUnits="userSpaceOnUse" /><linearGradient
     xlink:href="#linearGradient29"
     id="linearGradient50"
     gradientUnits="userSpaceOnUse"
     x1="284.03851"
     y1="189.94617"
     x2="284.03851"
     y2="253.58942"
     gradientTransform="translate(-1.28,-1.28)" /><linearGradient
     xlink:href="#linearGradient29"
     id="linearGradient51"
     gradientUnits="userSpaceOnUse"
     x1="284.03851"
     y1="189.94617"
     x2="284.03851"
     y2="253.58942"
     gradientTransform="translate(-1.28,-1.28)" /><linearGradient
     xlink:href="#linearGradient29"
     id="linearGradient52"
     gradientUnits="userSpaceOnUse"
     x1="284.03851"
     y1="189.94617"
     x2="284.03851"
     y2="253.58942"
     gradientTransform="translate(-1.28,-1.28)" /><linearGradient
     xlink:href="#linearGradient29"
     id="linearGradient53"
     gradientUnits="userSpaceOnUse"
     x1="284.03851"
     y1="189.94617"
     x2="284.03851"
     y2="253.58942"
     gradientTransform="translate(-1.28,-1.28)" /><linearGradient
     xlink:href="#linearGradient29"
     id="linearGradient54"
     gradientUnits="userSpaceOnUse"
     x1="284.03851"
     y1="189.94617"
     x2="284.03851"
     y2="253.58942"
     gradientTransform="translate(-1.28,-1.28)" /><linearGradient
     xlink:href="#linearGradient29"
     id="linearGradient55"
     gradientUnits="userSpaceOnUse"
     x1="284.03851"
     y1="189.94617"
     x2="284.03851"
     y2="253.58942"
     gradientTransform="translate(-1.28,-1.28)" /><linearGradient
     xlink:href="#linearGradient29"
     id="linearGradient56"
     gradientUnits="userSpaceOnUse"
     x1="284.03851"
     y1="189.94617"
     x2="284.03851"
     y2="253.58942"
     gradientTransform="translate(-1.28,-1.28)" /><linearGradient
     xlink:href="#linearGradient29"
     id="linearGradient57"
     gradientUnits="userSpaceOnUse"
     x1="284.03851"
     y1="189.94617"
     x2="284.03851"
     y2="253.58942"
     gradientTransform="translate(-1.28,-1.28)" /><linearGradient
     xlink:href="#linearGradient29"
     id="linearGradient58"
     gradientUnits="userSpaceOnUse"
     x1="284.03851"
     y1="189.94617"
     x2="284.03851"
     y2="253.58942"
     gradientTransform="translate(-1.28,-1.28)" /><linearGradient
     xlink:href="#linearGradient29"
     id="linearGradient59"
     gradientUnits="userSpaceOnUse"
     x1="284.03851"
     y1="189.94617"
     x2="284.03851"
     y2="253.58942"
     gradientTransform="translate(-1.28,-1.28)" /><linearGradient
     xlink:href="#linearGradient29"
     id="linearGradient60"
     gradientUnits="userSpaceOnUse"
     x1="284.03851"
     y1="189.94617"
     x2="284.03851"
     y2="253.58942"
     gradientTransform="translate(-1.28,-1.28)" /><filter
     style="color-interpolation-filters:sRGB"
     id="filter60"
     x="-0.059309301"
     y="-0.038222883"
     width="1.1186189"
     height="1.0764458"><feGaussianBlur
       stdDeviation="0.55953771"
       id="feGaussianBlur60" /></filter><filter
     style="color-interpolation-filters:sRGB"
     id="filter61"
     x="-0.04626043"
     y="-0.038222724"
     width="1.0925209"
     height="1.0764454"><feGaussianBlur
       stdDeviation="0.55953771"
       id="feGaussianBlur61" /></filter><filter
     style="color-interpolation-filters:sRGB"
     id="filter62"
     x="-0.056903644"
     y="-0.037910158"
     width="1.1138073"
     height="1.0758203"><feGaussianBlur
       stdDeviation="0.55953771"
       id="feGaussianBlur62" /></filter><filter
     style="color-interpolation-filters:sRGB"
     id="filter63"
     x="-0.090405154"
     y="-0.037678384"
     width="1.1808103"
     height="1.0753529"><feGaussianBlur
       stdDeviation="0.55953771"
       id="feGaussianBlur63" /></filter><filter
     style="color-interpolation-filters:sRGB"
     id="filter64"
     x="-0.059309301"
     y="-0.038222883"
     width="1.1186189"
     height="1.0764458"><feGaussianBlur
       stdDeviation="0.55953771"
       id="feGaussianBlur64" /></filter><filter
     style="color-interpolation-filters:sRGB"
     id="filter65"
     x="-0.04626043"
     y="-0.038222724"
     width="1.0925209"
     height="1.0764454"><feGaussianBlur
       stdDeviation="0.55953771"
       id="feGaussianBlur65" /></filter><filter
     style="color-interpolation-filters:sRGB"
     id="filter66"
     x="-0.056903644"
     y="-0.037910158"
     width="1.1138073"
     height="1.0758203"><feGaussianBlur
       stdDeviation="0.55953771"
       id="feGaussianBlur66" /></filter><filter
     style="color-interpolation-filters:sRGB"
     id="filter67"
     x="-0.056906456"
     y="-0.037632512"
     width="1.1138129"
     height="1.0752651"><feGaussianBlur
       stdDeviation="0.55953771"
       id="feGaussianBlur67" /></filter><filter
     style="color-interpolation-filters:sRGB"
     id="filter68"
     x="-0.065131598"
     y="-0.038222883"
     width="1.1302632"
     height="1.0764458"><feGaussianBlur
       stdDeviation="0.55953771"
       id="feGaussianBlur68" /></filter><filter
     style="color-interpolation-filters:sRGB"
     id="filter69"
     x="-0.059308715"
     y="-0.038222883"
     width="1.1186178"
     height="1.0764458"><feGaussianBlur
       stdDeviation="0.55953771"
       id="feGaussianBlur69" /></filter><filter
     style="color-interpolation-filters:sRGB"
     id="filter70"
     x="-0.030451623"
     y="-0.037964736"
     width="1.0609066"
     height="1.0758764"><feGaussianBlur
       stdDeviation="0.55953771"
       id="feGaussianBlur70" /></filter></defs>
<g
   id="g2"
   style="fill:#b87c00"
   transform="scale(0.02)">
	<path
   style="fill:#b87c00"
   d="m 433.253,125.646 h -68.299 c -10.777,0 -19.514,-8.737 -19.514,-19.514 V 82.324 c 0,-29.59 24.074,-53.664 53.664,-53.664 29.59,0 53.664,24.074 53.664,53.664 v 23.807 c -10e-4,10.778 -8.737,19.515 -19.515,19.515 z"
   id="path1" />
	<path
   style="fill:#b87c00"
   d="m 433.253,483.34 h -68.299 c -10.777,0 -19.514,-8.737 -19.514,-19.514 v -120.61 c 0,-10.777 8.737,-19.514 19.514,-19.514 h 68.299 c 10.777,0 19.514,8.737 19.514,19.514 v 120.61 c 0,10.778 -8.736,19.514 -19.514,19.514 z"
   id="path2" />
</g>
<g
   id="g4"
   style="fill:#d0980c"
   transform="scale(0.02)">
	<path
   style="fill:#d0980c"
   d="M 147.045,125.646 H 78.746 c -10.777,0 -19.514,-8.737 -19.514,-19.514 V 82.324 c 0,-29.59 24.074,-53.664 53.664,-53.664 29.59,0 53.664,24.074 53.664,53.664 v 23.807 c 0,10.778 -8.738,19.515 -19.515,19.515 z"
   id="path3" />
	<path
   style="fill:#d0980c"
   d="M 147.045,483.34 H 78.746 c -10.777,0 -19.514,-8.737 -19.514,-19.514 v -120.61 c 0,-10.777 8.737,-19.514 19.514,-19.514 h 68.299 c 10.777,0 19.514,8.737 19.514,19.514 v 120.61 c 0.001,10.778 -8.737,19.514 -19.514,19.514 z"
   id="path4" />
</g>
<path
   style="fill:#fcf87c;stroke-width:0.02"
   d="M 9.32934,7.25458 H 0.91066 C 0.40852,7.25458 0,6.84606 0,6.34392 V 2.643 C 0,2.14086 0.40852,1.73234 0.91066,1.73234 h 8.41868 c 0.50214,0 0.91066,0.40852 0.91066,0.91066 v 3.70092 c 0,0.50214 -0.40854,0.91066 -0.91066,0.91066 z"
   id="path5" />
<path
   style="fill:#e4c844;stroke-width:0.02"
   d="M 9.32934,1.73234 H 5.11998 V 7.25458 H 9.3293 c 0.50214,0 0.91066,-0.40852 0.91066,-0.91066 V 2.643 C 10.24,2.14086 9.83146,1.73234 9.32934,1.73234 Z"
   id="path6" /><g
   id="g70"
   transform="matrix(0.02,0,0,0.02,0,1.28)"><path
     style="opacity:0.6;fill:none;fill-opacity:1;stroke:url(#linearGradient50);stroke-width:1.92;filter:url(#filter70)"
     d="m 116.1243,246.625 c -2.036,5.935 -15.559,5.491 -16.815,0 l -4.285001,-19.534 -4.287,19.534 c -1.274,5.569 -14.975,5.854 -16.813,0 l -16.402,-50.276 c -1.698,-5.081 10.836,-8.842 12.281,-3.791 l 12.528,42.282 6.511,-27.858 c 0.998,-4.493 11.366001,-4.49 12.363001,0 l 6.511,27.858 12.528,-42.282 c 1.439,-5.04 13.96,-1.31 12.281,3.791 z"
     id="path40" /><path
     style="opacity:0.6;fill:none;fill-opacity:1;stroke:url(#linearGradient51);stroke-width:1.92;filter:url(#filter69)"
     d="m 156.8463,215.305 h 12.363 c 5.083,0 5.24,9.891 0,9.891 h -12.363 v 14.011 h 22.089 c 5.096,0 5.255,11.209 0,11.209 h -29.341 c -2.802,0 -5.606,-1.319 -5.606,-3.956 v -52.337 c 0,-2.637 2.802,-3.956 5.606,-3.956 h 29.341 c 5.258,0 5.093,11.209 0,11.209 h -22.089 z"
     id="path41" /><path
     style="opacity:0.6;fill:none;fill-opacity:1;stroke:url(#linearGradient52);stroke-width:1.92;filter:url(#filter68)"
     d="m 200.6143,250.416 c -2.802,0 -5.606,-1.319 -5.606,-3.956 v -52.42 c 0,-2.72 3.215,-3.873 6.428,-3.873 3.216,0 6.429,1.154 6.429,3.873 v 45.166 h 18.791 c 4.946,0 4.946,11.209 0,11.209 h -26.042 z"
     id="path42" /><path
     style="opacity:0.6;fill:none;fill-opacity:1;stroke:url(#linearGradient53);stroke-width:1.92;filter:url(#filter67)"
     d="m 260.8673,201.376 c -4.698,0 -7.418,2.637 -7.418,8.243 v 21.842 c 0,5.604 2.72,8.241 7.5,8.241 6.593,0 7.007,-5.028 7.253,-8.241 0.247,-3.049 3.051,-3.874 6.347,-3.874 4.451,0 6.511,1.154 6.511,6.1 0,21.775 -40.468,25.498 -40.468,-2.226 v -21.842 c 0,-27.783 40.468,-23.656 40.468,-3.049 0,4.945 -2.061,6.099 -6.428,6.099 -3.462,0 -6.265,-0.907 -6.429,-3.874 -0.085,-2.144 -0.331,-7.419 -7.336,-7.419 z"
     id="path43" /><path
     style="opacity:0.6;fill:none;fill-opacity:1;stroke:url(#linearGradient54);stroke-width:1.92;filter:url(#filter66)"
     d="m 293.5093,231.46 v -21.842 c 0,-14.176 8.819,-19.452 20.195,-19.452 11.373,0 20.275,5.275 20.275,19.452 v 21.842 c 0,14.176 -8.902,19.452 -20.275,19.452 -11.376,-0.001 -20.195,-5.275 -20.195,-19.452 z m 27.609,-21.841 c 0,-5.688 -2.801,-8.243 -7.417,-8.243 -4.616,0 -7.336,2.555 -7.336,8.243 v 21.842 c 0,5.686 2.72,8.241 7.336,8.241 4.616,0 7.417,-2.555 7.417,-8.241 z"
     id="path44" /><path
     style="opacity:0.6;fill:none;fill-opacity:1;stroke:url(#linearGradient55);stroke-width:1.92;filter:url(#filter65)"
     d="m 377.8283,229.071 c -1.841,3.116 -6.593,3.32 -8.323,0 l -7.829,-14.342 v 31.733 c 0,5.275 -12.859,5.275 -12.859,0 v -49.865 c 0,-4.698 3.215,-6.428 6.429,-6.428 4.614,0 6.593,0.494 9.972,6.428 l 8.49,14.836 8.489,-14.836 c 3.38,-5.935 5.356,-6.428 9.973,-6.428 3.295,0 6.428,1.73 6.428,6.428 v 49.865 c 0,5.275 -12.859,5.275 -12.859,0 v -30.908 z"
     id="path45" /><path
     style="opacity:0.6;fill:none;fill-opacity:1;stroke:url(#linearGradient56);stroke-width:1.92;filter:url(#filter64)"
     d="m 426.9553,215.305 h 12.363 c 5.083,0 5.24,9.891 0,9.891 h -12.363 v 14.011 h 22.089 c 5.096,0 5.254,11.209 0,11.209 h -29.341 c -2.802,0 -5.606,-1.319 -5.606,-3.956 v -52.337 c 0,-2.637 2.802,-3.956 5.606,-3.956 h 29.341 c 5.256,0 5.094,11.209 0,11.209 h -22.089 z"
     id="path46" /><path
     style="opacity:0.6;fill:none;fill-opacity:1;stroke:url(#linearGradient57);stroke-width:1.92;filter:url(#filter63)"
     d="m 274.5463,227.589 c -3.291,0 -6.101,0.82 -6.349,3.877 -0.247,3.213 -0.65,8.235 -7.246,8.235 -2.277,0 -4.085,-0.598 -5.36,-1.847 v 12.814 c 11.526,2.368 25.472,-4.189 25.472,-16.977 10e-4,-4.946 -2.068,-6.102 -6.517,-6.102 z m -18.955,-37.156 v 12.762 c 1.249,-1.224 3.031,-1.821 5.269,-1.821 7.012,0 7.259,5.282 7.337,7.415 0.169,2.966 2.966,3.877 6.427,3.877 4.371,0 6.44,-1.158 6.44,-6.101 0,-12.1 -13.959,-18.513 -25.473,-16.132 z"
     id="path47" /><path
     style="opacity:0.6;fill:none;fill-opacity:1;stroke:url(#linearGradient58);stroke-width:1.92;filter:url(#filter62)"
     d="m 293.5093,231.46 v -21.842 c 0,-14.176 8.819,-19.452 20.195,-19.452 11.373,0 20.275,5.275 20.275,19.452 v 21.842 c 0,14.176 -8.902,19.452 -20.275,19.452 -11.376,-0.001 -20.195,-5.275 -20.195,-19.452 z m 27.609,-21.841 c 0,-5.688 -2.801,-8.243 -7.417,-8.243 -4.616,0 -7.336,2.555 -7.336,8.243 v 21.842 c 0,5.686 2.72,8.241 7.336,8.241 4.616,0 7.417,-2.555 7.417,-8.241 z"
     id="path48" /><path
     style="opacity:0.6;fill:none;fill-opacity:1;stroke:url(#linearGradient59);stroke-width:1.92;filter:url(#filter61)"
     d="m 377.8283,229.071 c -1.841,3.116 -6.593,3.32 -8.323,0 l -7.829,-14.342 v 31.733 c 0,5.275 -12.859,5.275 -12.859,0 v -49.865 c 0,-4.698 3.215,-6.428 6.429,-6.428 4.614,0 6.593,0.494 9.972,6.428 l 8.49,14.836 8.489,-14.836 c 3.38,-5.935 5.356,-6.428 9.973,-6.428 3.295,0 6.428,1.73 6.428,6.428 v 49.865 c 0,5.275 -12.859,5.275 -12.859,0 v -30.908 z"
     id="path49" /><path
     style="opacity:0.6;fill:none;fill-opacity:1;stroke:url(#linearGradient60);stroke-width:1.92;filter:url(#filter60)"
     d="m 426.9553,215.305 h 12.363 c 5.083,0 5.24,9.891 0,9.891 h -12.363 v 14.011 h 22.089 c 5.096,0 5.254,11.209 0,11.209 h -29.341 c -2.802,0 -5.606,-1.319 -5.606,-3.956 v -52.337 c 0,-2.637 2.802,-3.956 5.606,-3.956 h 29.341 c 5.256,0 5.094,11.209 0,11.209 h -22.089 z"
     id="path50" /></g>
<g
   id="g40"
   transform="matrix(0.02,0,0,0.02,0,1.28)"><path
     style="fill:none;fill-opacity:1;stroke:url(#linearGradient40);stroke-width:1.92"
     d="m 117.4043,247.905 c -2.036,5.935 -15.559,5.491 -16.815,0 l -4.285001,-19.534 -4.287,19.534 c -1.274,5.569 -14.975,5.854 -16.813,0 l -16.402,-50.276 c -1.698,-5.081 10.836,-8.842 12.281,-3.791 l 12.528,42.282 6.511,-27.858 c 0.998,-4.493 11.366001,-4.49 12.363001,0 l 6.511,27.858 12.528,-42.282 c 1.439,-5.04 13.96,-1.31 12.281,3.791 z"
     id="path18" /><path
     style="fill:none;fill-opacity:1;stroke:url(#linearGradient39);stroke-width:1.92"
     d="m 158.1263,216.585 h 12.363 c 5.083,0 5.24,9.891 0,9.891 h -12.363 v 14.011 h 22.089 c 5.096,0 5.255,11.209 0,11.209 h -29.341 c -2.802,0 -5.606,-1.319 -5.606,-3.956 v -52.337 c 0,-2.637 2.802,-3.956 5.606,-3.956 h 29.341 c 5.258,0 5.093,11.209 0,11.209 h -22.089 z"
     id="path19" /><path
     style="fill:none;fill-opacity:1;stroke:url(#linearGradient38);stroke-width:1.92"
     d="m 201.8943,251.696 c -2.802,0 -5.606,-1.319 -5.606,-3.956 v -52.42 c 0,-2.72 3.215,-3.873 6.428,-3.873 3.216,0 6.429,1.154 6.429,3.873 v 45.166 h 18.791 c 4.946,0 4.946,11.209 0,11.209 h -26.042 z"
     id="path20" /><path
     style="fill:none;fill-opacity:1;stroke:url(#linearGradient37);stroke-width:1.92"
     d="m 262.1473,202.656 c -4.698,0 -7.418,2.637 -7.418,8.243 v 21.842 c 0,5.604 2.72,8.241 7.5,8.241 6.593,0 7.007,-5.028 7.253,-8.241 0.247,-3.049 3.051,-3.874 6.347,-3.874 4.451,0 6.511,1.154 6.511,6.1 0,21.775 -40.468,25.498 -40.468,-2.226 v -21.842 c 0,-27.783 40.468,-23.656 40.468,-3.049 0,4.945 -2.061,6.099 -6.428,6.099 -3.462,0 -6.265,-0.907 -6.429,-3.874 -0.085,-2.144 -0.331,-7.419 -7.336,-7.419 z"
     id="path21" /><path
     style="fill:none;fill-opacity:1;stroke:url(#linearGradient36);stroke-width:1.92"
     d="m 294.7893,232.74 v -21.842 c 0,-14.176 8.819,-19.452 20.195,-19.452 11.373,0 20.275,5.275 20.275,19.452 v 21.842 c 0,14.176 -8.902,19.452 -20.275,19.452 -11.376,-0.001 -20.195,-5.275 -20.195,-19.452 z m 27.609,-21.841 c 0,-5.688 -2.801,-8.243 -7.417,-8.243 -4.616,0 -7.336,2.555 -7.336,8.243 v 21.842 c 0,5.686 2.72,8.241 7.336,8.241 4.616,0 7.417,-2.555 7.417,-8.241 z"
     id="path22" /><path
     style="fill:none;fill-opacity:1;stroke:url(#linearGradient35);stroke-width:1.92"
     d="m 379.1083,230.351 c -1.841,3.116 -6.593,3.32 -8.323,0 l -7.829,-14.342 v 31.733 c 0,5.275 -12.859,5.275 -12.859,0 v -49.865 c 0,-4.698 3.215,-6.428 6.429,-6.428 4.614,0 6.593,0.494 9.972,6.428 l 8.49,14.836 8.489,-14.836 c 3.38,-5.935 5.356,-6.428 9.973,-6.428 3.295,0 6.428,1.73 6.428,6.428 v 49.865 c 0,5.275 -12.859,5.275 -12.859,0 v -30.908 z"
     id="path23" /><path
     style="fill:none;fill-opacity:1;stroke:url(#linearGradient34);stroke-width:1.92"
     d="m 428.2353,216.585 h 12.363 c 5.083,0 5.24,9.891 0,9.891 h -12.363 v 14.011 h 22.089 c 5.096,0 5.254,11.209 0,11.209 h -29.341 c -2.802,0 -5.606,-1.319 -5.606,-3.956 v -52.337 c 0,-2.637 2.802,-3.956 5.606,-3.956 h 29.341 c 5.256,0 5.094,11.209 0,11.209 h -22.089 z"
     id="path24" /><path
     style="fill:none;fill-opacity:1;stroke:url(#linearGradient33);stroke-width:1.92"
     d="m 275.8263,228.869 c -3.291,0 -6.101,0.82 -6.349,3.877 -0.247,3.213 -0.65,8.235 -7.246,8.235 -2.277,0 -4.085,-0.598 -5.36,-1.847 v 12.814 c 11.526,2.368 25.472,-4.189 25.472,-16.977 10e-4,-4.946 -2.068,-6.102 -6.517,-6.102 z m -18.955,-37.156 v 12.762 c 1.249,-1.224 3.031,-1.821 5.269,-1.821 7.012,0 7.259,5.282 7.337,7.415 0.169,2.966 2.966,3.877 6.427,3.877 4.371,0 6.44,-1.158 6.44,-6.101 0,-12.1 -13.959,-18.513 -25.473,-16.132 z"
     id="path25" /><path
     style="fill:none;fill-opacity:1;stroke:url(#linearGradient32);stroke-width:1.92"
     d="m 294.7893,232.74 v -21.842 c 0,-14.176 8.819,-19.452 20.195,-19.452 11.373,0 20.275,5.275 20.275,19.452 v 21.842 c 0,14.176 -8.902,19.452 -20.275,19.452 -11.376,-0.001 -20.195,-5.275 -20.195,-19.452 z m 27.609,-21.841 c 0,-5.688 -2.801,-8.243 -7.417,-8.243 -4.616,0 -7.336,2.555 -7.336,8.243 v 21.842 c 0,5.686 2.72,8.241 7.336,8.241 4.616,0 7.417,-2.555 7.417,-8.241 z"
     id="path26" /><path
     style="fill:none;fill-opacity:1;stroke:url(#linearGradient31);stroke-width:1.92"
     d="m 379.1083,230.351 c -1.841,3.116 -6.593,3.32 -8.323,0 l -7.829,-14.342 v 31.733 c 0,5.275 -12.859,5.275 -12.859,0 v -49.865 c 0,-4.698 3.215,-6.428 6.429,-6.428 4.614,0 6.593,0.494 9.972,6.428 l 8.49,14.836 8.489,-14.836 c 3.38,-5.935 5.356,-6.428 9.973,-6.428 3.295,0 6.428,1.73 6.428,6.428 v 49.865 c 0,5.275 -12.859,5.275 -12.859,0 v -30.908 z"
     id="path27" /><path
     style="fill:none;fill-opacity:1;stroke:url(#linearGradient30);stroke-width:1.92"
     d="m 428.2353,216.585 h 12.363 c 5.083,0 5.24,9.891 0,9.891 h -12.363 v 14.011 h 22.089 c 5.096,0 5.254,11.209 0,11.209 h -29.341 c -2.802,0 -5.606,-1.319 -5.606,-3.956 v -52.337 c 0,-2.637 2.802,-3.956 5.606,-3.956 h 29.341 c 5.256,0 5.094,11.209 0,11.209 h -22.089 z"
     id="path28" /></g><g
   id="g13"
   transform="matrix(0.02,0,0,0.02,0,1.28)">
	<path
   style="fill:#d0980c"
   d="m 116.532,246.625 c -2.036,5.935 -15.559,5.491 -16.815,0 l -4.285,-19.534 -4.287,19.534 c -1.274,5.569 -14.975,5.854 -16.813,0 L 57.93,196.349 c -1.698,-5.081 10.836,-8.842 12.281,-3.791 l 12.528,42.282 6.511,-27.858 c 0.998,-4.493 11.366,-4.49 12.363,0 l 6.511,27.858 12.528,-42.282 c 1.439,-5.04 13.96,-1.31 12.281,3.791 z"
   id="path7" />
	<path
   style="fill:#d0980c"
   d="m 157.254,215.305 h 12.363 c 5.083,0 5.24,9.891 0,9.891 h -12.363 v 14.011 h 22.089 c 5.096,0 5.255,11.209 0,11.209 h -29.341 c -2.802,0 -5.606,-1.319 -5.606,-3.956 v -52.337 c 0,-2.637 2.802,-3.956 5.606,-3.956 h 29.341 c 5.258,0 5.093,11.209 0,11.209 h -22.089 z"
   id="path8" />
	<path
   style="fill:#d0980c"
   d="m 201.022,250.416 c -2.802,0 -5.606,-1.319 -5.606,-3.956 v -52.42 c 0,-2.72 3.215,-3.873 6.428,-3.873 3.216,0 6.429,1.154 6.429,3.873 v 45.166 h 18.791 c 4.946,0 4.946,11.209 0,11.209 h -26.042 z"
   id="path9" />
	<path
   style="fill:#d0980c"
   d="m 261.275,201.376 c -4.698,0 -7.418,2.637 -7.418,8.243 v 21.842 c 0,5.604 2.72,8.241 7.5,8.241 6.593,0 7.007,-5.028 7.253,-8.241 0.247,-3.049 3.051,-3.874 6.347,-3.874 4.451,0 6.511,1.154 6.511,6.1 0,21.775 -40.468,25.498 -40.468,-2.226 v -21.842 c 0,-27.783 40.468,-23.656 40.468,-3.049 0,4.945 -2.061,6.099 -6.428,6.099 -3.462,0 -6.265,-0.907 -6.429,-3.874 -0.085,-2.144 -0.331,-7.419 -7.336,-7.419 z"
   id="path10" />
	<path
   style="fill:#808285"
   d="m 293.917,231.46 v -21.842 c 0,-14.176 8.819,-19.452 20.195,-19.452 11.373,0 20.275,5.275 20.275,19.452 v 21.842 c 0,14.176 -8.902,19.452 -20.275,19.452 -11.376,-0.001 -20.195,-5.275 -20.195,-19.452 z m 27.609,-21.841 c 0,-5.688 -2.801,-8.243 -7.417,-8.243 -4.616,0 -7.336,2.555 -7.336,8.243 v 21.842 c 0,5.686 2.72,8.241 7.336,8.241 4.616,0 7.417,-2.555 7.417,-8.241 z"
   id="path11" />
	<path
   style="fill:#808285"
   d="m 378.236,229.071 c -1.841,3.116 -6.593,3.32 -8.323,0 l -7.829,-14.342 v 31.733 c 0,5.275 -12.859,5.275 -12.859,0 v -49.865 c 0,-4.698 3.215,-6.428 6.429,-6.428 4.614,0 6.593,0.494 9.972,6.428 l 8.49,14.836 8.489,-14.836 c 3.38,-5.935 5.356,-6.428 9.973,-6.428 3.295,0 6.428,1.73 6.428,6.428 v 49.865 c 0,5.275 -12.859,5.275 -12.859,0 v -30.908 z"
   id="path12" />
	<path
   style="fill:#808285"
   d="m 427.363,215.305 h 12.363 c 5.083,0 5.24,9.891 0,9.891 h -12.363 v 14.011 h 22.089 c 5.096,0 5.254,11.209 0,11.209 h -29.341 c -2.802,0 -5.606,-1.319 -5.606,-3.956 v -52.337 c 0,-2.637 2.802,-3.956 5.606,-3.956 h 29.341 c 5.256,0 5.094,11.209 0,11.209 h -22.089 z"
   id="path13" />
</g>
<g
   id="g17"
   transform="matrix(0.02,0,0,0.02,0,1.28)">
	<path
   style="fill:#b87c00"
   d="m 274.954,227.589 c -3.291,0 -6.101,0.82 -6.349,3.877 -0.247,3.213 -0.65,8.235 -7.246,8.235 -2.277,0 -4.085,-0.598 -5.36,-1.847 v 12.814 c 11.526,2.368 25.472,-4.189 25.472,-16.977 10e-4,-4.946 -2.068,-6.102 -6.517,-6.102 z m -18.955,-37.156 v 12.762 c 1.249,-1.224 3.031,-1.821 5.269,-1.821 7.012,0 7.259,5.282 7.337,7.415 0.169,2.966 2.966,3.877 6.427,3.877 4.371,0 6.44,-1.158 6.44,-6.101 0,-12.1 -13.959,-18.513 -25.473,-16.132 z"
   id="path14" />
	<path
   style="fill:#b87c00"
   d="m 293.917,231.46 v -21.842 c 0,-14.176 8.819,-19.452 20.195,-19.452 11.373,0 20.275,5.275 20.275,19.452 v 21.842 c 0,14.176 -8.902,19.452 -20.275,19.452 -11.376,-0.001 -20.195,-5.275 -20.195,-19.452 z m 27.609,-21.841 c 0,-5.688 -2.801,-8.243 -7.417,-8.243 -4.616,0 -7.336,2.555 -7.336,8.243 v 21.842 c 0,5.686 2.72,8.241 7.336,8.241 4.616,0 7.417,-2.555 7.417,-8.241 z"
   id="path15" />
	<path
   style="fill:#b87c00"
   d="m 378.236,229.071 c -1.841,3.116 -6.593,3.32 -8.323,0 l -7.829,-14.342 v 31.733 c 0,5.275 -12.859,5.275 -12.859,0 v -49.865 c 0,-4.698 3.215,-6.428 6.429,-6.428 4.614,0 6.593,0.494 9.972,6.428 l 8.49,14.836 8.489,-14.836 c 3.38,-5.935 5.356,-6.428 9.973,-6.428 3.295,0 6.428,1.73 6.428,6.428 v 49.865 c 0,5.275 -12.859,5.275 -12.859,0 v -30.908 z"
   id="path16" />
	<path
   style="fill:#b87c00"
   d="m 427.363,215.305 h 12.363 c 5.083,0 5.24,9.891 0,9.891 h -12.363 v 14.011 h 22.089 c 5.096,0 5.254,11.209 0,11.209 h -29.341 c -2.802,0 -5.606,-1.319 -5.606,-3.956 v -52.337 c 0,-2.637 2.802,-3.956 5.606,-3.956 h 29.341 c 5.256,0 5.094,11.209 0,11.209 h -22.089 z"
   id="path17" />
</g>
<path
   d="m 1.4070254,3.9909305 q 0.020981,0.00191 0.047683,0.00381 0.02861,0 0.066756,0 0.2231576,0 0.3299681,-0.1125325 0.1087178,-0.1125324 0.1087178,-0.3108948 0,-0.2078989 -0.1029958,-0.3147094 Q 1.7541595,3.149798 1.5310019,3.149798 q -0.030517,0 -0.062942,0.00191 -0.032425,0 -0.061035,0.00381 z M 2.2672313,3.5713179 q 0,0.1716597 -0.053405,0.2994508 -0.053405,0.1277912 -0.1525864,0.2117137 -0.097274,0.083922 -0.2384162,0.1258838 -0.1411425,0.041961 -0.3166168,0.041961 -0.080108,0 -0.1869184,-0.00763 -0.1068104,-0.00572 -0.2098063,-0.026703 V 2.9285477 q 0.1029959,-0.019073 0.213621,-0.024795 0.1125325,-0.00763 0.1926403,-0.00763 0.1697524,0 0.3070802,0.038147 0.1392351,0.038147 0.2384162,0.1201618 0.099181,0.082015 0.1525864,0.2098063 0.053405,0.1277911 0.053405,0.3070801 z M 2.4484275,3.5350787 H 3.0015532 V 3.7925682 H 2.4484275 Z M 3.5375119,4.2331614 Q 3.4593114,4.0672237 3.3830182,3.8879347 3.306725,3.7086457 3.2380611,3.5331713 3.1693972,3.357697 3.11027,3.1974812 3.0530501,3.0372655 3.0110888,2.9113817 h 0.3280608 q 0.038147,0.1144398 0.082015,0.2479529 0.045776,0.1316058 0.091552,0.2632116 0.047683,0.1316058 0.091552,0.2517675 0.043869,0.1201618 0.082015,0.207899 0.036239,-0.087737 0.080108,-0.207899 0.045776,-0.1201617 0.091552,-0.2517675 0.047683,-0.1316058 0.091552,-0.2632116 0.045776,-0.1335131 0.083923,-0.2479529 H 4.3500345 Q 4.3061659,3.0372655 4.248946,3.1974812 4.1917261,3.357697 4.1230623,3.5331713 4.0543984,3.7086457 3.9781052,3.8879347 3.901812,4.0672237 3.8236114,4.2331614 Z m 1.2493013,0 H 4.502621 V 3.2299059 h 0.2841922 z m 0.026703,-1.2931697 q 0,0.0782 -0.051498,0.1239764 -0.049591,0.043869 -0.1182545,0.043869 -0.068664,0 -0.1201618,-0.043869 -0.04959,-0.045776 -0.04959,-0.1239764 0,-0.078201 0.04959,-0.1220691 0.051498,-0.045776 0.1201618,-0.045776 0.068664,0 0.1182545,0.045776 0.051498,0.043869 0.051498,0.1220691 z m 0.8449464,0.5416817 q -0.038147,-0.00954 -0.089644,-0.019073 -0.051498,-0.011444 -0.1106252,-0.011444 -0.026703,0 -0.064849,0.00572 -0.036239,0.00381 -0.055313,0.00954 V 4.2331614 H 5.0538386 V 3.2833111 q 0.076293,-0.026703 0.179289,-0.049591 0.1049031,-0.024795 0.2326942,-0.024795 0.022888,0 0.055313,0.00381 0.032425,0.00191 0.064849,0.00763 0.032425,0.00381 0.064849,0.011444 0.032425,0.00572 0.055312,0.015259 z M 5.8491968,2.9800456 6.133389,2.9342697 V 3.2299059 H 6.4748011 V 3.4664148 H 6.133389 v 0.352856 q 0,0.089644 0.030517,0.1430498 0.032425,0.053405 0.1277911,0.053405 0.045776,0 0.093459,-0.00763 0.049591,-0.00954 0.089644,-0.024795 l 0.040054,0.2212503 q -0.051498,0.020981 -0.1144398,0.036239 -0.062942,0.015259 -0.1544937,0.015259 -0.1163472,0 -0.1926404,-0.030517 Q 5.9769879,4.1931075 5.931212,4.1377949 5.8854361,4.080575 5.8663628,4.0004672 5.8491968,3.9203593 5.8491968,3.8230855 Z m 1.1253254,0.5912723 q 0,0.097274 0.022888,0.1754744 0.024795,0.0782 0.068664,0.1354204 0.045776,0.055313 0.1106252,0.08583 0.064849,0.030517 0.1487717,0.030517 0.082015,0 0.1468644,-0.030517 0.066757,-0.030517 0.1106252,-0.08583 0.045776,-0.05722 0.068664,-0.1354204 0.024795,-0.0782 0.024795,-0.1754744 0,-0.097274 -0.024795,-0.1754743 -0.022888,-0.080108 -0.068664,-0.1354205 -0.043869,-0.05722 -0.1106252,-0.087737 -0.064849,-0.030517 -0.1468644,-0.030517 -0.083922,0 -0.1487717,0.032425 -0.064849,0.030517 -0.1106252,0.087737 -0.043869,0.055312 -0.068664,0.1354204 -0.022888,0.0782 -0.022888,0.173567 z m 1.0089776,0 q 0,0.1697524 -0.051498,0.2994508 -0.049591,0.1277912 -0.1373278,0.2155283 -0.087737,0.08583 -0.2098063,0.1296985 -0.1201618,0.043869 -0.2593969,0.043869 -0.1354204,0 -0.2555822,-0.043869 Q 6.9497269,4.1721269 6.8600824,4.086297 6.7704379,3.9985599 6.71894,3.8707687 6.667442,3.7410703 6.667442,3.5713179 q 0,-0.1697523 0.053405,-0.2975435 0.053405,-0.1296984 0.1430497,-0.2174356 0.091552,-0.087737 0.2098063,-0.1316058 0.1201618,-0.043868 0.2517676,-0.043868 0.1354204,0 0.2555822,0.043868 0.1201618,0.043869 0.2098063,0.1316058 0.089645,0.087737 0.1411425,0.2174356 0.051498,0.1277912 0.051498,0.2975435 z m 0.6084401,0.4348713 q 0.062942,0 0.1029958,-0.00954 0.041961,-0.011444 0.066757,-0.02861 0.024795,-0.019073 0.034332,-0.043869 0.00954,-0.024795 0.00954,-0.055313 0,-0.064849 -0.061034,-0.1068105 Q 8.6834917,3.7181823 8.53472,3.6685918 8.4698707,3.6457038 8.4050215,3.6170938 8.3401723,3.5865766 8.2886744,3.542708 8.2371765,3.4969321 8.2047519,3.4339902 8.1723273,3.3691409 8.1723273,3.2775891 q 0,-0.091552 0.034332,-0.1640304 0.034332,-0.074386 0.097274,-0.1258838 0.062942,-0.051498 0.1525864,-0.0782 0.089645,-0.02861 0.202177,-0.02861 0.1335131,0 0.230787,0.02861 0.097274,0.02861 0.1602157,0.062942 l -0.08583,0.2346016 q -0.055312,-0.02861 -0.1239764,-0.049591 -0.066757,-0.022888 -0.1621231,-0.022888 -0.1068105,0 -0.1544937,0.030517 -0.045776,0.02861 -0.045776,0.089644 0,0.036239 0.017166,0.061035 0.017166,0.024795 0.047683,0.045776 0.032425,0.019073 0.072479,0.036239 0.041961,0.015259 0.091552,0.032425 0.1029958,0.038147 0.179289,0.076293 0.076293,0.036239 0.1258838,0.08583 0.051498,0.049591 0.076293,0.1163471 0.024795,0.066756 0.024795,0.162123 0,0.1850111 -0.1296985,0.2880069 -0.1296984,0.1010885 -0.3910026,0.1010885 -0.087737,0 -0.1583084,-0.011444 -0.070571,-0.00954 -0.1258838,-0.024795 -0.053405,-0.015259 -0.093459,-0.032425 -0.038147,-0.017166 -0.064849,-0.032425 l 0.083923,-0.2365089 q 0.059127,0.032425 0.1449571,0.059127 0.087737,0.024795 0.213621,0.024795 z"
   id="text70"
   style="font-weight:bold;font-size:1.90733px;font-family:Ubuntu;-inkscape-font-specification:Ubuntu;opacity:0.6;stroke-width:0.357624;stroke-linecap:round;stroke-linejoin:round;paint-order:stroke fill markers"
   aria-label="D-VirtOS" /></svg>
