<?xml version="1.0" encoding="UTF-8" standalone="no"?>
<svg
   width="16"
   height="16"
   fill="currentColor"
   class="bi bi-tux"
   viewBox="0 0 16 16"
   version="1.1"
   id="svg2"
   sodipodi:docname="biglinux.svg"
   inkscape:version="1.4.3 (0d15f75042, 2025-12-25)"
   xmlns:inkscape="http://www.inkscape.org/namespaces/inkscape"
   xmlns:sodipodi="http://sodipodi.sourceforge.net/DTD/sodipodi-0.dtd"
   xmlns:xlink="http://www.w3.org/1999/xlink"
   xmlns="http://www.w3.org/2000/svg"
   xmlns:svg="http://www.w3.org/2000/svg">
  <defs
     id="defs2">
    <linearGradient
       xlink:href="#linear-gradient"
       y2="403.29001"
       x2="360.97"
       y1="154.53999"
       x1="127.32"
       id="linear-gradient-3"
       gradientTransform="matrix(0.03154201,0,0,0.03154201,-0.07476,-0.07476)" />
    <linearGradient
       gradientUnits="userSpaceOnUse"
       gradientTransform="matrix(1,0,0,-1,16.81,529.63)"
       y2="456.44"
       x2="304.39001"
       y1="207.69"
       x1="70.739998"
       id="linear-gradient">
      <stop
         stop-color="#2d85c6"
         offset="0"
         id="stop1" />
      <stop
         stop-color="#04bacc"
         offset="1"
         id="stop2" />
    </linearGradient>
    <linearGradient
       xlink:href="#linear-gradient"
       y2="385.38"
       x2="380.04001"
       y1="136.63"
       x1="146.39"
       id="linear-gradient-2"
       gradientTransform="matrix(0.03154201,0,0,0.03154201,-0.07476,-0.07476)" />
  </defs>
  <sodipodi:namedview
     id="namedview2"
     pagecolor="#505050"
     bordercolor="#eeeeee"
     borderopacity="1"
     inkscape:showpageshadow="0"
     inkscape:pageopacity="0"
     inkscape:pagecheckerboard="0"
     inkscape:deskcolor="#505050"
     showgrid="false"
     inkscape:zoom="32.92466"
     inkscape:cx="8.2157264"
     inkscape:cy="6.955273"
     inkscape:window-width="1920"
     inkscape:window-height="1048"
     inkscape:window-x="0"
     inkscape:window-y="32"
     inkscape:window-maximized="1"
     inkscape:current-layer="svg2" />
  <path
     d="M 7.20514,6.24027 C 7.41994,6.25257 7.6215,6.16737 7.81264,6.0772 8.06119,5.94535 8.29555,5.74822 8.40942,5.48452 a 0.73808303,0.73808303 0 0 0 0.041,-0.62894 C 8.39202,4.68178 8.23783,4.56886 8.10819,4.449 7.86027,4.29728 7.55841,4.20581 7.26696,4.2547 7.09443,4.2447 6.9323,4.2948 6.77806,4.35595 A 1.4670189,1.4670189 0 0 0 6.0526,4.95777 C 5.9674,5.14261 5.8747,5.35804 5.9602,5.55959 c 0.0725,0.28104 0.30753,0.48985 0.57028,0.59709 0.21291,0.077 0.44663,0.12491 0.67468,0.0836 z"
     class="cls-3"
     id="path5"
     style="fill:#000000;stroke-width:0.031542;stroke:none" />
  <path
     d="M 9.75153,9.45756 C 9.32476,9.04562 8.9226,8.56776 8.77026,7.98518 8.69806,7.70729 8.70716,7.41584 8.68476,7.12944 8.60746,6.89761 8.4504,6.6724 8.205,6.59133 8.04729,6.50143 7.86214,6.48756 7.68645,6.45886 7.34328,6.46786 6.98654,6.62792 6.81652,6.93987 c -0.0681,0.13059 -0.088,0.28199 -0.10566,0.42677 0.0218,0.399 0.19461,0.77625 0.39964,1.11595 0.18925,0.28704 0.41509,0.55546 0.69203,0.76679 0.15771,0.1637 0.3662,0.26054 0.55671,0.38008 a 3.280369,3.280369 0 0 0 1.12731,0.4009 6.4598037,6.4598037 0 0 0 0.98254,0.10945 C 10.25744,9.88085 9.96442,9.70895 9.75151,9.45756 Z"
     class="cls-4"
     id="path6"
     style="fill:#000000;stroke-width:0.031542;stroke:none" />
  <path
     d="M 8,0 C 3.5816,0 0,3.58191 0,8 c 0,4.41809 3.5816,8 8,8 4.4184,0 8,-3.5816 8,-8 C 16,3.5816 12.41809,0 8,0 Z M 1.63325,11.08512 C 1.41844,10.91827 1.26925,10.68265 1.11596,10.45996 A 1.2582108,1.2582108 0 0 1 1.01408,10.27071 7.281473,7.281473 0 0 1 0.72263,9.04467 2.4883492,2.4883492 0 0 0 1.01755,9.54934 1.0828372,1.0828372 0 0 0 1.75815,9.98494 C 2.00229,9.99884 2.23822,9.90764 2.44829,9.79569 2.71514,9.61905 2.97283,9.42728 3.19521,9.19639 3.31475,9.10179 3.39928,8.97244 3.52135,8.87434 3.73804,8.66743 3.90774,8.41068 4.13957,8.21669 4.32567,8.00189 4.52691,7.7975 4.75748,7.63632 c 0.089,-0.047 0.18925,-0.0921 0.28735,-0.0738 0.15077,0.0748 0.12144,0.26306 0.17884,0.39522 0.0202,0.19966 0.0246,0.39901 0.0423,0.5993 -0.0334,0.51161 -0.1473,1.02669 -0.39775,1.47459 -0.0697,0.16023 -0.18231,0.29523 -0.26653,0.44727 -0.0893,0.11828 -0.20123,0.22079 -0.29428,0.3397 -0.31006,0.30281 -0.68068,0.57123 -1.11281,0.66649 -0.14698,0.0631 -0.30974,0.0356 -0.46335,0.0583 A 1.6086425,1.6086425 0 0 1 1.63328,11.08508 Z m 13.01234,-0.22647 a 2.1782912,2.1782912 0 0 1 -0.0473,0.24319 c -1.72818,3.65856 -6.0936,5.22525 -9.75247,3.4958 a 7.3212159,7.3212159 0 0 1 -2.14486,-1.54019 2.187123,2.187123 0 0 0 0.45452,0.0889 l 0.63494,-0.0388 C 4.43104,12.98737 5.01268,12.63221 5.459,12.16444 5.57065,12.08114 5.64825,11.96825 5.72616,11.85565 5.92582,11.64179 6.06176,11.37747 6.21348,11.12639 6.47433,10.57031 6.67589,9.96628 6.66958,9.349 6.70808,9.19445 6.67158,9.03358 6.63808,8.88029 6.57498,8.37562 6.3296,7.90438 5.98421,7.53376 5.85173,7.37857 5.67352,7.27638 5.50887,7.15904 5.13888,6.95023 4.73799,6.74899 4.30618,6.72912 3.99076,6.67232 3.68291,6.81712 3.423,6.98146 3.24132,7.08933 3.10758,7.2565 2.94987,7.3915 2.78175,7.58707 2.60638,7.78105 2.38558,7.92078 A 2.4287348,2.4287348 0 0 1 2.1017,8.00688 C 1.97554,7.98318 1.84401,7.95008 1.74843,7.85958 1.65633,7.79148 1.61564,7.68263 1.55477,7.58958 1.46017,7.43818 1.40936,7.25933 1.36551,7.0868 1.28321,6.84582 1.27841,6.5856 1.21758,6.33831 1.21458,6.0907 1.16648,5.84089 1.20588,5.59581 c -0.0173,-0.1615 0.008,-0.32015 0.0227,-0.4807 a 0.25044356,0.25044356 0 0 1 0.005,-0.0315 C 2.35395,2.47477 4.94923,0.64407 7.9719,0.64407 a 7.3073375,7.3073375 0 0 1 5.35488,2.32906 2.1423333,2.1423333 0 0 0 -0.60592,-0.14225 l -0.63462,0.0385 C 11.44593,2.98955 10.8643,3.34471 10.41735,3.8128 10.30569,3.8957 10.2281,4.00899 10.15019,4.12159 9.95084,4.33545 9.81458,4.60009 9.6635,4.85085 9.40201,5.40693 9.20046,6.01096 9.20708,6.62855 c -0.0385,0.15456 0,0.31542 0.0315,0.4684 0.0631,0.50467 0.30849,0.9778 0.65419,1.34716 0.13216,0.15487 0.31037,0.25675 0.47502,0.37472 0.36999,0.20818 0.77089,0.41005 1.20301,0.42992 0.31542,0.0565 0.62296,-0.0883 0.88318,-0.25423 0.18168,-0.10756 0.31542,-0.27473 0.47313,-0.41005 0.16685,-0.19556 0.34412,-0.38954 0.56208,-0.52927 a 2.2994125,2.2994125 0 0 1 0.28387,-0.0864 c 0.12617,0.024 0.25739,0.0568 0.35327,0.14667 0.0921,0.0688 0.1328,0.1779 0.19367,0.27063 0.0946,0.15141 0.14541,0.32993 0.18925,0.50278 0.082,0.24067 0.0871,0.50089 0.14794,0.7485 0.003,0.24792 0.0511,0.49741 0.0117,0.74218 0.018,0.16023 -0.008,0.3192 -0.0233,0.47912 z m -0.52833,-4.8663 c -0.24382,-0.0139 -0.48007,0.077 -0.68983,0.18925 -0.26684,0.17664 -0.52486,0.3681 -0.74723,0.5993 -0.11954,0.0946 -0.20407,0.22427 -0.32614,0.32205 -0.21669,0.20723 -0.38608,0.46429 -0.61791,0.65765 -0.18641,0.21511 -0.38733,0.4195 -0.61822,0.58037 -0.0886,0.0473 -0.18736,0.0927 -0.28735,0.0741 -0.15077,-0.0747 -0.12112,-0.26337 -0.17884,-0.39553 -0.0205,-0.19935 -0.0249,-0.39838 -0.0423,-0.5993 0.0334,-0.5113 0.14699,-1.02638 0.39743,-1.47428 0.0697,-0.16023 0.18263,-0.29523 0.26653,-0.44758 0.0899,-0.11828 0.20155,-0.22079 0.29429,-0.33907 0.31005,-0.30344 0.68099,-0.57154 1.1128,-0.6668 0.1473,-0.0631 0.30974,-0.036 0.46398,-0.0583 a 1.6086425,1.6086425 0 0 1 1.09766,0.45704 c 0.21512,0.16749 0.364,0.40311 0.51698,0.62548 0.10598,0.15455 0.15171,0.35138 0.27347,0.49584 A 7.340772,7.340772 0 0 1 15.25873,7.19981 2.7681268,2.7681268 0 0 0 14.8572,6.42955 1.0828372,1.0828372 0 0 0 14.11723,5.99238 Z"
     class="cls-5"
     id="path7"
     style="fill:#000000;stroke-width:0.031542;stroke:none" />
</svg>
