<?xml version="1.0" encoding="UTF-8" standalone="no"?>
<!-- Created with Inkscape (http://www.inkscape.org/) -->

<svg
   width="32"
   height="32"
   version="1.1"
   viewBox="0 0 32 32"
   id="svg20"
   sodipodi:docname="dvirtos-logo.svg"
   inkscape:version="1.4.3 (0d15f75042, 2025-12-25)"
   xmlns:inkscape="http://www.inkscape.org/namespaces/inkscape"
   xmlns:sodipodi="http://sodipodi.sourceforge.net/DTD/sodipodi-0.dtd"
   xmlns="http://www.w3.org/2000/svg"
   xmlns:svg="http://www.w3.org/2000/svg">
  <sodipodi:namedview
     id="namedview20"
     pagecolor="#505050"
     bordercolor="#eeeeee"
     borderopacity="1"
     inkscape:showpageshadow="0"
     inkscape:pageopacity="0"
     inkscape:pagecheckerboard="true"
     inkscape:deskcolor="#505050"
     inkscape:zoom="27.75"
     inkscape:cx="15.981982"
     inkscape:cy="16"
     inkscape:window-width="1920"
     inkscape:window-height="1048"
     inkscape:window-x="0"
     inkscape:window-y="32"
     inkscape:window-maximized="1"
     inkscape:current-layer="svg20" />
  <defs
     id="defs16">
    <linearGradient
       id="linearGradient640"
       x1="978.54"
       x2="889.69"
       y1="1248.9"
       y2="750.08"
       gradientTransform="matrix(3.0393 0 0 3.0393 8763.4 638.05)"
       gradientUnits="userSpaceOnUse">
      <stop
         offset="0"
         id="stop1" />
      <stop
         stop-color="#b87c00"
         offset=".11889"
         id="stop2" />
      <stop
         offset=".19788"
         id="stop3" />
      <stop
         stop-color="#d0980c"
         offset=".26688"
         id="stop4" />
      <stop
         stop-color="#e4c844"
         offset=".29226"
         id="stop5" />
      <stop
         stop-color="#b87c00"
         offset=".33682"
         id="stop6" />
      <stop
         stop-color="#b87c00"
         offset=".3854"
         id="stop7" />
      <stop
         stop-color="#d0980c"
         offset=".42005"
         id="stop8" />
      <stop
         offset=".46663"
         id="stop9" />
      <stop
         stop-color="#d0980c"
         offset=".55327"
         id="stop10" />
      <stop
         stop-color="#d0980c"
         offset=".70247"
         id="stop11" />
      <stop
         stop-color="#fcf87c"
         offset=".73431"
         id="stop12" />
      <stop
         stop-color="#b87c00"
         offset=".76173"
         id="stop13" />
      <stop
         offset="1"
         id="stop14" />
    </linearGradient>
    <linearGradient
       id="linearGradient642"
       x1="2036.5"
       x2="1843.8"
       y1="299.64"
       y2="-251.21"
       gradientTransform="matrix(2.7103 0 0 2.7103 6475 3586.3)"
       gradientUnits="userSpaceOnUse">
      <stop
         stop-color="#fcfc80"
         stop-opacity=".8"
         offset="0"
         id="stop15" />
      <stop
         stop-color="#fcfc80"
         stop-opacity=".4"
         offset="1"
         id="stop16" />
    </linearGradient>
  </defs>
  <g
     transform="translate(-266.99 -303)"
     id="g20">
    <g
       transform="matrix(.021225 0 0 .021225 36.152 241.26)"
       id="g19">
      <g
         id="g18">
        <path
           d="m11638 2908.9 7.005 34.762 20.699 102.75-21.039 22.854-36.377-101.43-205.13-12.964 54.913 49.879 65.441 59.448-7.087 62.79-182.96 29.859-136.58-82.736-99.915 37.9-159.49 656.75 207.62 214.12 54.988-37.626 3.683 31.648 125.14 291.13 300.54 148.5 300.54-148.5 125.1-291.07 4.052-31.476 54.656 37.396 207.62-214.12-159.49-656.75-99.915-37.9-136.59 82.736-91.343-14.912 29.054-74.874-18.741-12.327-77.481 76.24-16.396-2.6796 45.864-72.962z"
           color="#000000"
           color-rendering="auto"
           dominant-baseline="auto"
           fill="#fff"
           image-rendering="auto"
           shape-rendering="auto"
           solid-color="#000000"
           style="font-feature-settings:normal;font-variant-alternates:normal;font-variant-caps:normal;font-variant-ligatures:normal;font-variant-numeric:normal;font-variant-position:normal;isolation:auto;mix-blend-mode:normal;paint-order:stroke fill markers;shape-padding:0;text-decoration-color:#000000;text-decoration-line:none;text-decoration-style:solid;text-indent:0;text-orientation:mixed;text-transform:none;white-space:normal"
           id="path16" />
        <path
           d="m11994 3722.9-188.74 103.86 20.035-0.6893c19.002 31.479 59.054 42.995 91.874 26.416 31.621-16.074 46.311-53.188 34.257-86.549zm-712.92 0 42.568 43.031c-12.057 33.362 2.634 70.481 34.258 86.554 32.82 16.579 72.871 5.0635 91.873-26.416l20.035 0.6894zm48.077-105.03c-79.774 0.5858-213.67 18.544-213.67 18.544v59.872s22.244 12.798 29.289 23.026c32.225 46.783 18.358 115.99 50.659 162.72 13.671 19.778 35.018 34.32 56.851 44.39 32.705 15.087 69.914 19.502 105.87 21.62 35.177 2.0712 71.184-0.189 105.34-8.8452 21.321-5.4029 43.343-12.63 60.442-26.463 20.181-16.327 33.263-40.319 45.441-63.243 17.606-33.141 38.989-105.62 38.989-105.62s19.327-4.6063 29.17-4.6063c9.842 0 29.164 4.6063 29.164 4.6063s21.383 72.475 38.988 105.62c12.178 22.924 25.26 46.916 45.441 63.243 17.099 13.834 39.121 21.06 60.442 26.463 34.158 8.6566 70.171 10.916 105.35 8.8452 35.955-2.1173 73.159-6.5329 105.86-21.62 21.832-10.07 43.179-24.613 56.85-44.39 32.301-46.73 18.434-115.93 50.659-162.72 7.045-10.228 29.289-23.026 29.289-23.026v-59.872s-152.35-20.433-228.85-18.42c-88.764 2.3356-175.44 29.41-264.03 35.308-9.701 0.6456-19.442 0-29.164 0s-19.47 0.6456-29.17 0c-88.599-5.8975-175.27-32.972-264.03-35.308-4.781-0.1262-9.861-0.1644-15.179-0.1251zm-57.432 29.36c26.189 0.1504 53.812 4.4633 78.731 5.1941 59.824 1.7545 122.81 3.3103 177.36 27.941 11.718 5.2917 24.149 13.021 29.704 24.617 6.778 14.15 3.971 31.719 0.688 47.062-10.282 48.06-23.773 103.12-62.3 133.63-35.836 28.384-88.549 27.659-134.26 27.941-25.873 0.1625-52.276-4.9848-76.184-14.876-20.633-8.5361-42.586-19.215-55.598-37.362-25.917-36.147-27.681-84.899-34.952-128.78-1.917-11.569-3.517-23.451-2.226-35.106 1.166-10.524 0.747-23.736 8.899-30.494 19.192-15.911 43.951-19.924 70.141-19.773zm731.62 0c26.189-0.1505 50.949 3.8622 70.142 19.773 8.151 6.758 7.738 19.969 8.903 30.494 1.291 11.655-0.313 23.538-2.231 35.106-7.272 43.88-9.029 92.632-34.946 128.78-13.012 18.147-34.97 28.826-55.604 37.362-23.908 9.891-50.306 15.036-76.179 14.876-45.713-0.2835-98.433 0.4426-134.27-27.941-38.526-30.515-52.018-85.573-62.299-133.63-3.282-15.342-6.084-32.912 0.695-47.062 5.555-11.596 17.98-19.325 29.698-24.617 54.547-24.631 117.54-26.187 177.36-27.941 24.92-0.7306 52.542-5.0437 78.731-5.1941zm-495.79 576.75v-30.702l85.874-44.831h71.454l85.875 44.831v30.702l-121.6 70.371zm148.4-1282.5 21.851 108.48-37.837 41.102-40.23-112.17-164.94-10.424 30.687 27.872 69.788 63.39-8.726 77.259-195.71 31.942-135.42-82.031-89.03 33.771-156.58 644.73 196.49 202.63 58.281-39.873-28.061-21.91c-4.927-3.84-8.565-9.0916-10.429-15.054l-2.559-8.2155-35.468 24.267-123.54-141.84 120.1-614.34 70.794-39.849 126.32 74.178-41.974 73.204-135.52 215.14 15.57 128.34 76.535-6.1557-24.748-122.19 140.73-268.34 172.92-56.999-4.114 36.442 19.215-41.416 4.363-9.4088 34.573-74.528-40.503-41.333h52.95l46.848 85.444 76.725-33.207-10.293-43.387 44.491 37.504-28.862 70.658-3.294 8.0612-1.852 4.5352 57.906 29.633 10.513-12.222 14.841-17.256 6.274-7.2955-3.407 7.7644-8.679 19.761-16.989 38.686-57.729 15.078 70.919 3.3896 20.094-51.781 96.717 31.877 140.73 268.34-24.481 120.86 76.433 6.1498 15.405-127.01-106.38-168.88-70.995-119.54 126.2-74.106 70.794 39.849 120.1 614.34-123.54 141.84-21.715-14.852c-1.952 5.4705-5.417 10.275-9.99 13.855l-35.878 28.024 49.347 33.759 196.49-202.63-156.58-644.73-89.029-33.771-135.42 82.031-109.49-17.874 34.174-88.068-81.628 80.328-39.213-6.4051 49.999-79.544zm-446.14 990.76 4.862 41.749 122.81 285.71 291.67 144.12 291.66-144.12 122.8-285.71 3.556-27.632-5.497 4.2917c-3.736 2.9253-8.098 4.9447-12.745 5.9006l-83.48 17.049-0.08 0.3915-82.892 267.47-233.33 113.72-233.33-113.72-82.897-267.47-0.802-3.9594-65.998-13.481c-4.645-0.957-9.005-2.9764-12.739-5.9006z"
           stroke="#000"
           stroke-width="22.947"
           style="paint-order:stroke fill markers"
           id="path17" />
        <path
           d="m11994 3708.6-188.74 103.86 20.035-0.6886c19.002 31.479 59.054 42.995 91.873 26.416 31.622-16.074 46.312-53.188 34.258-86.549zm-712.92 0 42.568 43.031c-12.057 33.362 2.634 70.481 34.258 86.554 32.82 16.579 72.871 5.0635 91.873-26.416l20.034 0.6894zm48.077-105.03c-79.774 0.5858-213.67 18.544-213.67 18.544v59.872s22.244 12.798 29.289 23.026c32.225 46.783 18.358 115.99 50.659 162.72 13.671 19.778 35.018 34.32 56.85 44.39 32.706 15.087 69.915 19.502 105.87 21.619 35.177 2.0712 71.184-0.189 105.34-8.8448 21.321-5.4032 43.343-12.63 60.442-26.463 20.181-16.327 33.262-40.319 45.441-63.244 17.606-33.141 38.988-105.62 38.988-105.62s19.328-4.6063 29.171-4.6063c9.842 0 29.164 4.6063 29.164 4.6063s21.383 72.475 38.988 105.62c12.178 22.924 25.26 46.916 45.441 63.244 17.099 13.833 39.121 21.06 60.442 26.463 34.158 8.6562 70.171 10.916 105.35 8.8448 35.955-2.1173 73.159-6.5325 105.86-21.619 21.832-10.07 43.179-24.613 56.85-44.39 32.301-46.73 18.434-115.93 50.659-162.72 7.045-10.228 29.288-23.026 29.288-23.026v-59.872s-152.34-20.433-228.85-18.42c-88.765 2.3356-175.44 29.41-264.03 35.308-9.701 0.6456-19.443 0-29.164 0-9.722 0-19.47 0.6456-29.171 0-88.598-5.8975-175.27-32.972-264.03-35.308-4.781-0.1262-9.861-0.1644-15.179-0.1254zm-57.432 29.36c26.189 0.1504 53.811 4.4633 78.731 5.1941 59.824 1.7546 122.81 3.3103 177.36 27.941 11.719 5.2916 24.149 13.021 29.705 24.617 6.778 14.15 3.971 31.719 0.687 47.062-10.281 48.06-23.772 103.12-62.299 133.63-35.836 28.384-88.549 27.659-134.26 27.941-25.873 0.1588-52.276-4.9848-76.185-14.876-20.633-8.5357-42.585-19.215-55.597-37.362-25.917-36.147-27.681-84.899-34.952-128.78-1.917-11.569-3.516-23.451-2.226-35.106 1.166-10.524 0.747-23.736 8.898-30.494 19.193-15.911 43.952-19.924 70.142-19.773zm731.62 0c26.189-0.1505 50.949 3.8622 70.141 19.773 8.152 6.7581 7.739 19.969 8.904 30.494 1.291 11.656-0.317 23.537-2.231 35.106-7.272 43.88-9.029 92.632-34.947 128.78-13.011 18.147-34.969 28.826-55.603 37.362-23.908 9.891-50.306 15.036-76.179 14.876-45.713-0.2797-98.433 0.4426-134.27-27.941-38.526-30.515-52.017-85.573-62.299-133.63-3.282-15.342-6.084-32.912 0.695-47.062 5.555-11.596 17.979-19.325 29.698-24.617 54.547-24.631 117.54-26.187 177.36-27.941 24.92-0.7306 52.542-5.0437 78.731-5.1941zm-495.79 576.75v-30.702l85.874-44.831h71.454l85.875 44.831v30.702l-121.6 70.371zm148.4-1282.5 21.85 108.48-37.836 41.102-40.23-112.17-164.94-10.424 100.48 91.262-8.726 77.259-195.71 31.942-135.42-82.031-89.03 33.771-156.58 644.73 196.49 202.63 58.28-39.872-28.06-21.91c-4.927-3.84-8.565-9.092-10.429-15.054l-2.559-8.2156-35.468 24.266-123.54-141.84 120.11-614.34 70.794-39.849 126.32 74.178-41.974 73.204-135.52 215.14 15.571 128.34 76.534-6.1557-24.747-122.19 140.73-268.34 172.92-56.999-4.114 36.442 19.215-41.416 4.363-9.4087 34.572-74.528-40.502-41.333h52.95l46.848 85.444 76.725-33.207-10.293-43.387 44.49 37.504-28.861 70.658-3.294 8.0612-1.852 4.5353 57.906 29.633 10.514-12.222 14.84-17.256 6.274-7.2954-3.408 7.7643-8.678 19.761-16.989 38.686-57.729 15.078 70.919 3.3896 20.093-51.781 96.718 31.877 140.73 268.34-24.48 120.86 76.433 6.1498 15.405-127.01-106.38-168.88-70.995-119.54 126.2-74.106 70.793 39.849 120.11 614.34-123.54 141.84-21.715-14.852c-1.953 5.4705-5.417 10.275-9.99 13.855l-35.878 28.024 49.347 33.759 196.49-202.63-156.58-644.73-89.029-33.771-135.42 82.031-109.48-17.874 34.174-88.068-81.628 80.328-39.214-6.4051 50-79.544zm-446.14 990.76 4.862 41.749 122.81 285.71 291.67 144.12 291.66-144.12 122.8-285.71 3.555-27.633-5.496 4.2921c-3.736 2.925-8.098 4.9444-12.745 5.9002l-83.48 17.049-0.08 0.3916-82.892 267.47-233.33 113.72-233.33-113.72-82.899-267.47-0.801-3.9591-65.998-13.481c-4.645-0.957-9.005-2.976-12.739-5.9006z"
           fill="url(#linearGradient640)"
           stroke="#000"
           stroke-width="3.0393"
           style="paint-order:stroke fill markers"
           id="path18" />
      </g>
      <path
         d="m11994 3708.6-188.74 103.86 20.035-0.6886c19.002 31.479 59.054 42.995 91.873 26.416 31.622-16.074 46.312-53.188 34.258-86.549zm-712.92 0 42.568 43.031c-12.057 33.362 2.634 70.481 34.258 86.554 32.82 16.579 72.871 5.0635 91.873-26.416l20.034 0.6894zm48.077-105.03c-79.774 0.5858-213.67 18.544-213.67 18.544v59.872s22.244 12.798 29.289 23.026c32.225 46.783 18.358 115.99 50.659 162.72 13.671 19.778 35.018 34.32 56.85 44.39 32.706 15.087 69.915 19.502 105.87 21.619 35.177 2.0712 71.184-0.189 105.34-8.8448 21.321-5.4032 43.343-12.63 60.442-26.463 20.181-16.327 33.262-40.319 45.441-63.244 17.606-33.141 38.988-105.62 38.988-105.62s19.328-4.6063 29.171-4.6063c9.842 0 29.164 4.6063 29.164 4.6063s21.383 72.475 38.988 105.62c12.178 22.924 25.26 46.916 45.441 63.244 17.099 13.833 39.121 21.06 60.442 26.463 34.158 8.6562 70.171 10.916 105.35 8.8448 35.955-2.1173 73.159-6.5325 105.86-21.619 21.832-10.07 43.179-24.613 56.85-44.39 32.301-46.73 18.434-115.93 50.659-162.72 7.045-10.228 29.288-23.026 29.288-23.026v-59.872s-152.34-20.433-228.85-18.42c-88.765 2.3356-175.44 29.41-264.03 35.308-9.701 0.6456-19.443 0-29.164 0-9.722 0-19.47 0.6456-29.171 0-88.598-5.8975-175.27-32.972-264.03-35.308-4.781-0.1262-9.861-0.1644-15.179-0.1254zm-57.432 29.36c26.189 0.1504 53.811 4.4633 78.731 5.1941 59.824 1.7546 122.81 3.3103 177.36 27.941 11.719 5.2916 24.149 13.021 29.705 24.617 6.778 14.15 3.971 31.719 0.687 47.062-10.281 48.06-23.772 103.12-62.299 133.63-35.836 28.384-88.549 27.659-134.26 27.941-25.873 0.1588-52.276-4.9848-76.185-14.876-20.633-8.5357-42.585-19.215-55.597-37.362-25.917-36.147-27.681-84.899-34.952-128.78-1.917-11.569-3.516-23.451-2.226-35.106 1.166-10.524 0.747-23.736 8.898-30.494 19.193-15.911 43.952-19.924 70.142-19.773zm731.62 0c26.189-0.1505 50.949 3.8622 70.141 19.773 8.152 6.7581 7.739 19.969 8.904 30.494 1.291 11.656-0.317 23.537-2.231 35.106-7.272 43.88-9.029 92.632-34.947 128.78-13.011 18.147-34.969 28.826-55.603 37.362-23.908 9.891-50.306 15.036-76.179 14.876-45.713-0.2797-98.433 0.4426-134.27-27.941-38.526-30.515-52.017-85.573-62.299-133.63-3.282-15.342-6.084-32.912 0.695-47.062 5.555-11.596 17.979-19.325 29.698-24.617 54.547-24.631 117.54-26.187 177.36-27.941 24.92-0.7306 52.542-5.0437 78.731-5.1941zm-495.79 576.75v-30.702l85.874-44.831h71.454l85.875 44.831v30.702l-121.6 70.371zm148.4-1282.5 21.85 108.48-37.836 41.102-40.23-112.17-164.94-10.424 100.48 91.262-8.726 77.259-195.71 31.942-135.42-82.031-89.03 33.771-156.58 644.73 196.49 202.63 58.28-39.872-28.06-21.91c-4.927-3.84-8.565-9.092-10.429-15.054l-2.559-8.2156-35.468 24.266-123.54-141.84 120.11-614.34 70.794-39.849 126.32 74.178-41.974 73.204-135.52 215.14 15.571 128.34 76.534-6.1557-24.747-122.19 140.73-268.34 172.92-56.999-4.114 36.442 19.215-41.416 4.363-9.4087 34.572-74.528-40.502-41.333h52.95l46.848 85.444 76.725-33.207-10.293-43.387 44.49 37.504-28.861 70.658-3.294 8.0612-1.852 4.5353 57.906 29.633 10.514-12.222 14.84-17.256 6.274-7.2954-3.408 7.7643-8.678 19.761-16.989 38.686-57.729 15.078 70.919 3.3896 20.093-51.781 96.718 31.877 140.73 268.34-24.48 120.86 76.433 6.1498 15.405-127.01-106.38-168.88-70.995-119.54 126.2-74.106 70.793 39.849 120.11 614.34-123.54 141.84-21.715-14.852c-1.953 5.4705-5.417 10.275-9.99 13.855l-35.878 28.024 49.347 33.759 196.49-202.63-156.58-644.73-89.029-33.771-135.42 82.031-109.48-17.874 34.174-88.068-81.628 80.328-39.214-6.4051 50-79.544zm-446.14 990.76 4.862 41.749 122.81 285.71 291.67 144.12 291.66-144.12 122.8-285.71 3.555-27.633-5.496 4.2921c-3.736 2.925-8.098 4.9444-12.745 5.9002l-83.48 17.049-0.08 0.3916-82.892 267.47-233.33 113.72-233.33-113.72-82.899-267.47-0.801-3.9591-65.998-13.481c-4.645-0.957-9.005-2.976-12.739-5.9006z"
         fill="none"
         stroke="url(#linearGradient642)"
         stroke-width="11.474"
         style="paint-order:stroke fill markers"
         id="path19" />
    </g>
  </g>
</svg>
