<?xml version="1.0" encoding="UTF-8" standalone="no"?>
<svg
   width="16"
   height="16"
   fill="currentColor"
   class="bi bi-tux"
   viewBox="0 0 16 16"
   version="1.1"
   id="svg2"
   sodipodi:docname="debian.svg"
   inkscape:version="1.4.3 (0d15f75042, 2025-12-25)"
   xmlns:inkscape="http://www.inkscape.org/namespaces/inkscape"
   xmlns:sodipodi="http://sodipodi.sourceforge.net/DTD/sodipodi-0.dtd"
   xmlns="http://www.w3.org/2000/svg"
   xmlns:svg="http://www.w3.org/2000/svg">
  <defs
     id="defs2" />
  <sodipodi:namedview
     id="namedview2"
     pagecolor="#505050"
     bordercolor="#eeeeee"
     borderopacity="1"
     inkscape:showpageshadow="0"
     inkscape:pageopacity="0"
     inkscape:pagecheckerboard="0"
     inkscape:deskcolor="#505050"
     showgrid="false"
     inkscape:zoom="16.46233"
     inkscape:cx="-0.27335135"
     inkscape:cy="1.8223423"
     inkscape:window-width="1920"
     inkscape:window-height="1048"
     inkscape:window-x="0"
     inkscape:window-y="32"
     inkscape:window-maximized="1"
     inkscape:current-layer="svg2" />
  <path
     d="m 1.5861352,5.200705 c 0.0453,-0.14454 0.0912,-0.33281 0.12801,-0.52482 l 0.005,-0.0352 c -0.23307,0.29334 -0.11307,0.35308 -0.13334,0.55308 z m 0.42028,-1.7734 c 0.0464,0.37975 -0.28641,0.53336 0.0731,0.28001 0.20001,-0.44001 -0.0731,-0.12 -0.0667,-0.28001 z m 6.29408,-3.34731 c 0.17441,-0.0331 0.39148,-0.0613 0.61122,-0.0784 l 0.0219,-0.002 c -0.24641,0.0203 -0.49335,0.0336 -0.73336,0.0667 l 0.0997,0.0133 z m 5.7687298,7.13411 -0.0464,0.0997 c -0.0773,0.54989 -0.23894,1.04697 -0.47201,1.50085 l 0.0123,-0.0261 c 0.25174,-0.45548 0.42828,-0.98777 0.49761,-1.55312 l 0.002,-0.0213 z m -7.2946498,1.58778 c -0.0816,-0.0997 -0.15094,-0.21387 -0.2032,-0.33761 l -0.004,-0.009 c 0.0715,0.22347 0.16854,0.41814 0.29121,0.59361 l -0.005,-0.007 -0.08,-0.24001 z m -0.41334,0.0203 -0.0331,0.18667 c 0.15894,0.25441 0.33494,0.47469 0.53335,0.67309 v 0 c -0.16001,-0.31307 -0.28001,-0.44001 -0.49975,-0.86669 z m 6.5868798,-1.9078 c -0.0149,0.36642 -0.10667,0.70829 -0.25974,1.0139 l 0.006,-0.0144 -0.23307,0.12054 c -0.18668,0.36001 0.0203,0.23308 -0.11307,0.52002 -0.32108,0.31734 -0.67416,0.60269 -1.05391,0.85123 l -0.0256,0.016 c -0.13387,0 0.0933,-0.16641 0.12641,-0.22668 -0.39415,0.26668 -0.32055,0.40002 -0.91363,0.56642 l -0.0203,-0.04 c -0.24961,0.0853 -0.5376198,0.13494 -0.8368298,0.13494 -1.47151,0 -2.66462,-1.19311 -2.66462,-2.66462 0,-0.0107 0,-0.0219 0,-0.0325 v 0.002 c -0.0197,0.11307 -0.0464,0.0864 -0.08,0.13334 -0.005,-0.0597 -0.009,-0.12907 -0.009,-0.19947 0,-0.93443 0.54135,-1.74299 1.32805,-2.12754 l 0.0139,-0.006 c 0.29335,-0.15094 0.64003,-0.23894 1.00697,-0.23894 0.56855,0 1.0880398,0.21174 1.4827198,0.56108 l -0.002,-0.002 c -0.41121,-0.52962 -1.0480298,-0.86723 -1.7632498,-0.86723 -0.0176,0 -0.0352,0 -0.0528,5.3e-4 h 0.003 c -0.75576,0.007 -1.41285,0.42242 -1.76166,1.03631 l -0.005,0.0101 c -0.40002,0.25334 -0.44642,0.97976 -0.61976,1.10724 -0.0363,0.17973 -0.0571,0.38614 -0.0571,0.59735 0,1.18671 0.65708,2.21927 1.62725,2.75476 l 0.016,0.008 c 0.17974,0.1264 0.0533,0.13974 0.08,0.23307 -0.40108,-0.19307 -0.74029,-0.45335 -1.01656,-0.76962 l -0.003,-0.004 c 0.14933,0.23414 0.32587,0.43415 0.52908,0.60322 l 0.004,0.003 c -0.36642,-0.12 -0.84643,-0.86669 -0.98617,-0.89976 0.61975,1.10617 2.51955,1.94673 3.5062498,1.53285 -0.0875,0.006 -0.18934,0.0101 -0.2917398,0.0101 -0.45068,0 -0.8843,-0.072 -1.29018,-0.20534 l 0.0293,0.009 c -0.21974,-0.10667 -0.51309,-0.33975 -0.46669,-0.37975 0.44268,0.19148 0.9579,0.30241 1.49925,0.30241 0.9258998,0 1.7755298,-0.32534 2.4411498,-0.86776 l -0.007,0.005 c 0.29334,-0.23307 0.61975,-0.62668 0.71309,-0.63308 -0.13334,0.21334 0.0267,0.10667 -0.08,0.29334 0.29334,-0.48002 -0.13334,-0.20001 0.30667,-0.8267 l 0.16001,0.21975 c -0.0597,-0.40002 0.49335,-0.88057 0.44001,-1.50779 0.12641,-0.20001 0.13334,0.20001 0,0.64642 0.19308,-0.49335 0.0533,-0.56642 0.0997,-0.97283 0.0533,0.11467 0.1056,0.25388 0.14774,0.39735 l 0.006,0.0224 c -0.008,-0.0645 -0.0123,-0.13974 -0.0123,-0.21601 0,-0.30988 0.0736,-0.60269 0.20374,-0.86136 l -0.005,0.0112 c -0.0597,-0.0331 -0.18668,0.20001 -0.21334,-0.35308 0,-0.24641 0.0667,-0.13334 0.0933,-0.18667 -0.1344,-0.15574 -0.2256,-0.35201 -0.25281,-0.56855 l -5.3e-4,-0.005 c 0.0533,-0.0864 0.14667,0.21974 0.22668,0.22668 -0.0592,-0.20588 -0.10667,-0.45069 -0.13174,-0.70189 l -0.002,-0.0181 c -0.22668,-0.45335 -0.08,0.0667 -0.26668,-0.2 -0.22667,-0.72696 0.20001,-0.16641 0.22668,-0.49335 0.28427,0.47201 0.50988,1.01923 0.64642,1.60112 l 0.007,0.0389 c -0.0805,-0.44641 -0.19361,-0.84003 -0.34135,-1.21604 l 0.0149,0.0432 c 0.10667,0.0464 -0.17333,-0.82723 0.13974,-0.24641 -0.42935,-1.26724 -1.29497,-2.29074 -2.41394,-2.91423 l -0.0267,-0.0133 c 0.12,0.11307 0.28001,0.25974 0.21974,0.28001 -0.49975,-0.29975 -0.41335,-0.32001 -0.48642,-0.44642 -0.40641,-0.1664 -0.43308,0.0133 -0.70669,0 -0.46135,-0.23947 -1.0010998,-0.45548 -1.5643198,-0.61762 l -0.0635,-0.0155 0.0331,0.15307 c -0.51308,-0.16641 -0.60002,0.0667 -1.1531,0 -0.0336,-0.0267 0.17974,-0.0933 0.35308,-0.12001 -0.49389,0.0667 -0.46722,-0.0933 -0.95364,0.0203 0.10347,-0.0704 0.22348,-0.14134 0.34775,-0.20481 l 0.0187,-0.009 c -0.40002,0.0267 -0.9595,0.23307 -0.7867,0.0464 -0.94723,0.34241 -1.76806,0.79096 -2.50515,1.34405 l 0.0245,-0.0176 -0.0192,-0.14668 c -0.29975,0.36002 -1.30618,1.07364 -1.38618,1.54032 l -0.0875,0.0197 c -0.15307,0.26667 -0.25334,0.56642 -0.37975,0.84056 -0.20001,0.34668 -0.29974,0.13334 -0.26667,0.18667 -0.28481,0.57922 -0.54776,1.26564 -0.75096,1.97767 l -0.0219,0.0901 c 0.0395,0.36855 0.0619,0.7963 0.0619,1.22938 0,0.2144 -0.005,0.42774 -0.0165,0.63949 l 10e-4,-0.0299 c -0.002,0.0592 -0.003,0.12907 -0.003,0.19947 0,3.59852 2.30461,6.65889 5.51859,7.78533 l 0.0576,0.0176 c 0.43255,0.10827 0.92963,0.17067 1.44112,0.17067 0.0768,0 0.1536,-0.002 0.22934,-0.004 l -0.0112,5.4e-4 c -0.65976,-0.18668 -0.7467,-0.0997 -1.38618,-0.32641 -0.46669,-0.21334 -0.56642,-0.46669 -0.89337,-0.7531 l 0.13334,0.23308 c -0.64695,-0.22668 -0.37975,-0.28001 -0.90723,-0.44642 l 0.13974,-0.17974 c -0.27681,-0.1008 -0.50135,-0.29067 -0.64322,-0.53388 l -0.003,-0.006 -0.22668,0.006 c -0.27307,-0.33387 -0.41974,-0.58028 -0.40641,-0.77389 l -0.0741,0.13334 c -0.0864,-0.13974 -1.01283,-1.26724 -0.53335,-1.00697 -0.1376,-0.0955 -0.25014,-0.21814 -0.33068,-0.36108 l -0.003,-0.005 0.0933,-0.11307 c -0.19414,-0.22028 -0.33761,-0.48962 -0.41068,-0.78723 l -0.003,-0.0128 c 0.0699,0.10561 0.17387,0.18401 0.29601,0.21921 l 0.004,10e-4 c -0.58669,-1.44752 -0.61975,-0.08 -1.06724,-1.46779 l 0.0997,-0.0133 c -0.0555,-0.0928 -0.1136,-0.20427 -0.1648,-0.31948 l -0.009,-0.0208 0.04,-0.40001 c -0.41974,-0.49335 -0.12,-2.06727 -0.0597,-2.93397 0.18027,-0.51415 0.37814,-0.94989 0.60909,-1.36484 l -0.0229,0.0443 -0.13974,-0.0267 c 0.26668,-0.47308 1.56006,-1.9142 2.16008,-1.84006 0.2864,-0.36641 -0.0597,0 -0.12001,-0.0933 0.64002,-0.66029 0.84003,-0.46668 1.26724,-0.58668 0.46669,-0.26721 -0.40001,0.10667 -0.17974,-0.10081 0.80003,-0.2 0.56642,-0.46668 1.61339,-0.56642 0.10667,0.0667 -0.25974,0.0933 -0.34668,0.17334 0.38348,-0.1232 0.82403,-0.19467 1.28165,-0.19467 0.63682,0 1.24164,0.13814 1.7861898,0.38561 l -0.0272,-0.0112 c 1.27577,0.68002 2.17127,1.92913 2.35101,3.39905 l 0.002,0.0213 0.0533,0.0133 c 0.0128,0.15147 0.0203,0.32801 0.0203,0.50615 0,0.46028 -0.0485,0.90936 -0.14081,1.34244 l 0.007,-0.0421 0.13334,-0.28001 z m -4.4140098,-6.62742 -0.0997,0.0197 0.0933,-0.006 v -0.0133 z m -0.28001,-0.08 c 0.13334,0.0267 0.29974,0.0464 0.28001,0.08 0.15307,-0.0331 0.18667,-0.0667 -0.28641,-0.08 z m 2.9472998,6.52822 c 0.0331,-0.48055 -0.0933,-0.33388 -0.13334,-0.14721 0.0464,0.0267 0.0864,0.33335 0.13334,0.14667 z m -0.52055,1.36644 c 0.14614,-0.2 0.25547,-0.43734 0.31094,-0.69442 l 0.002,-0.0123 c -0.0528,0.18508 -0.128,0.34668 -0.224,0.49335 l 0.004,-0.007 c -0.49975,0.31308 -0.0464,-0.17974 0,-0.37335 -0.53335,0.67309 -0.0731,0.40002 -0.0933,0.59309 z m -1.4272498,0.35308 c -0.26668,0 0.0533,0.13334 0.40055,0.18667 0.096,-0.072 0.1808,-0.144 0.2608,-0.2208 l -10e-4,0.001 c -0.12907,0.0299 -0.27734,0.0464 -0.42935,0.0464 -0.0811,0 -0.16107,-0.005 -0.24001,-0.0144 l 0.01,10e-4 z"
     id="path1"
     style="stroke-width:0.533351;fill:#000000;stroke:none" />
</svg>
