<?xml version="1.0" encoding="UTF-8" standalone="no"?>
<svg
   width="16"
   height="16"
   fill="currentColor"
   class="bi bi-tux"
   viewBox="0 0 16 16"
   version="1.1"
   id="svg2"
   sodipodi:docname="linuxmint.svg"
   inkscape:version="1.4.3 (0d15f75042, 2025-12-25)"
   xmlns:inkscape="http://www.inkscape.org/namespaces/inkscape"
   xmlns:sodipodi="http://sodipodi.sourceforge.net/DTD/sodipodi-0.dtd"
   xmlns="http://www.w3.org/2000/svg"
   xmlns:svg="http://www.w3.org/2000/svg">
  <defs
     id="defs2" />
  <sodipodi:namedview
     id="namedview2"
     pagecolor="#505050"
     bordercolor="#eeeeee"
     borderopacity="1"
     inkscape:showpageshadow="0"
     inkscape:pageopacity="0"
     inkscape:pagecheckerboard="0"
     inkscape:deskcolor="#505050"
     showgrid="false"
     inkscape:zoom="32.92466"
     inkscape:cx="8.1853541"
     inkscape:cy="6.955273"
     inkscape:window-width="1920"
     inkscape:window-height="1048"
     inkscape:window-x="0"
     inkscape:window-y="32"
     inkscape:window-maximized="1"
     inkscape:current-layer="svg2" />
  <path
     d="m 8.92943,4.36291 c -0.56222,0 -1.06177,0.21574 -1.46314,0.63477 C 7.06516,5.41653 6.85456,5.93937 6.85456,6.52942 V 9.51215 H 8.16344 V 6.52942 c 0,-0.22609 0.0714,-0.40293 0.22765,-0.56611 0.15672,-0.1636 0.32278,-0.23771 0.53834,-0.23771 0.21993,0 0.38354,0.0738 0.54055,0.23771 0.1563,0.16312 0.22766,0.34002 0.22766,0.56611 v 2.98273 h 1.30893 V 6.52942 c 0,-0.22609 0.0714,-0.40293 0.22766,-0.56611 0.15707,-0.16402 0.32056,-0.23771 0.54061,-0.23771 0.21556,0 0.3815,0.0741 0.53828,0.23771 0.15629,0.16312 0.22765,0.34002 0.22765,0.56611 l 0.007,3.48515 c 0,0.74349 -0.68505,1.37006 -1.56502,1.37006 L 6.7619,11.36743 c -0.67907,0 -1.25907,-0.6832 -1.25907,-1.56114 V 3.24325 h -1.2378 v 6.81542 c 0,0.72313 0.256,1.35725 0.75405,1.87002 0.42568,0.4343 0.93768,0.71577 1.51283,0.7794 h 4.6998 c 0.72218,0 1.35671,-0.27758 1.86859,-0.81615 h 0.002 c 0.43538,-0.46232 0.68979,-1.01622 0.75169,-1.63968 l -0.005,-3.72286 c 0,-0.59005 -0.2106,-1.11295 -0.61179,-1.53174 -0.40137,-0.41903 -0.90092,-0.63477 -1.46308,-0.63477 -0.55175,0 -1.03465,0.21209 -1.42507,0.60047 C 9.95971,4.57558 9.48022,4.36289 8.92871,4.36289 Z"
     fill="#ffffff"
     id="path5"
     style="stroke:none;stroke-width:0.598617;fill:#000000" />
  <path
     d="m 7.4463,15.41278 c -2.97537,0 -5.55727,-2.33131 -5.55727,-5.40371 L 1.88603,6.27842 V 5.3271 H 0 V 0.5872 L 10.44286,0.6314 C 13.4208,0.6314 16,2.95992 16,6.0351 v 9.3777 z m 7.3418,-2.51557 V 6.03508 c 0,-2.29251 -1.94515,-4.15086 -4.34518,-4.15086 l -9.2281,-0.036 V 4.07443 H 1.9695 c 0.51237,0 1.12892,0.49763 1.12892,1.22795 l 0.005,4.70393 c 0,2.29259 1.94517,4.15093 4.34246,4.15093 h 5.91901 c 0.7588,0 1.42285,-0.49673 1.42285,-1.26003 z"
     fill="#ffffff"
     id="path6"
     style="stroke:none;stroke-width:0.598617;fill:#000000" />
</svg>
