<?xml version="1.0" encoding="UTF-8" standalone="no"?>
<!-- Created with Inkscape (http://www.inkscape.org/) -->

<svg
   width="32"
   height="32"
   viewBox="0 0 8.4666658 8.4666656"
   version="1.1"
   id="svg1"
   inkscape:version="1.4.3 (0d15f75042, 2025-12-25)"
   sodipodi:docname="logo-dognew-white-gold.svg"
   xmlns:inkscape="http://www.inkscape.org/namespaces/inkscape"
   xmlns:sodipodi="http://sodipodi.sourceforge.net/DTD/sodipodi-0.dtd"
   xmlns:xlink="http://www.w3.org/1999/xlink"
   xmlns="http://www.w3.org/2000/svg"
   xmlns:svg="http://www.w3.org/2000/svg">
  <sodipodi:namedview
     id="namedview1"
     pagecolor="#505050"
     bordercolor="#eeeeee"
     borderopacity="1"
     inkscape:showpageshadow="0"
     inkscape:pageopacity="0"
     inkscape:pagecheckerboard="0"
     inkscape:deskcolor="#505050"
     inkscape:document-units="px"
     inkscape:zoom="13.875"
     inkscape:cx="12.144144"
     inkscape:cy="16.792793"
     inkscape:window-width="1920"
     inkscape:window-height="1048"
     inkscape:window-x="0"
     inkscape:window-y="32"
     inkscape:window-maximized="1"
     inkscape:current-layer="layer1" />
  <defs
     id="defs1">
    <linearGradient
       inkscape:collect="always"
       xlink:href="#linearGradient1290"
       id="linearGradient640"
       gradientUnits="userSpaceOnUse"
       gradientTransform="matrix(0.80414658,0,0,0.80414658,2318.6551,168.8182)"
       x1="978.53741"
       y1="1248.9309"
       x2="889.68964"
       y2="750.07941" />
    <linearGradient
       id="linearGradient1290"
       inkscape:collect="always">
      <stop
         id="stop1262"
         offset="0"
         style="stop-color:#000000;stop-opacity:1" />
      <stop
         style="stop-color:#b87c00;stop-opacity:1"
         offset="0.11889485"
         id="stop1264" />
      <stop
         id="stop1266"
         offset="0.19787946"
         style="stop-color:#000000;stop-opacity:1" />
      <stop
         style="stop-color:#d0980c;stop-opacity:1;"
         offset="0.26688391"
         id="stop1268" />
      <stop
         style="stop-color:#e4c844;stop-opacity:1"
         offset="0.29226401"
         id="stop1270" />
      <stop
         style="stop-color:#b87c00;stop-opacity:1"
         offset="0.33681768"
         id="stop1272" />
      <stop
         style="stop-color:#b87c00;stop-opacity:1"
         offset="0.38540417"
         id="stop1274" />
      <stop
         style="stop-color:#d0980c;stop-opacity:1;"
         offset="0.42004845"
         id="stop1276" />
      <stop
         style="stop-color:#000000;stop-opacity:1"
         offset="0.46663448"
         id="stop1278" />
      <stop
         style="stop-color:#d0980c;stop-opacity:1;"
         offset="0.55326712"
         id="stop1280" />
      <stop
         style="stop-color:#d0980c;stop-opacity:1;"
         offset="0.70247042"
         id="stop1282" />
      <stop
         style="stop-color:#fcf87c;stop-opacity:1"
         offset="0.73430789"
         id="stop1284" />
      <stop
         id="stop1286"
         offset="0.76173341"
         style="stop-color:#b87c00;stop-opacity:1" />
      <stop
         id="stop1288"
         offset="1"
         style="stop-color:#000000;stop-opacity:1" />
    </linearGradient>
    <linearGradient
       inkscape:collect="always"
       xlink:href="#linearGradient2151"
       id="linearGradient642"
       gradientUnits="userSpaceOnUse"
       gradientTransform="matrix(0.71710272,0,0,0.71710272,1713.1804,948.87615)"
       x1="2036.4775"
       y1="299.63879"
       x2="1843.8467"
       y2="-251.20631" />
    <linearGradient
       inkscape:collect="always"
       id="linearGradient2151">
      <stop
         style="stop-color:#fcfc80;stop-opacity:0.8"
         offset="0"
         id="stop2147" />
      <stop
         style="stop-color:#fcfc80;stop-opacity:0.4"
         offset="1"
         id="stop2149" />
    </linearGradient>
  </defs>
  <g
     inkscape:label="Camada 1"
     inkscape:groupmode="layer"
     id="layer1"
     transform="translate(-70.642136,-80.168751)">
    <g
       transform="matrix(0.02122542,0,0,0.02122542,9.5651858,63.832475)"
       id="g636"
       inkscape:label="logo_dognew"
       style="display:inline"
       inkscape:export-filename="logo-dognew-white-gold.png"
       inkscape:export-xdpi="96"
       inkscape:export-ydpi="96">
      <path
         id="path628"
         transform="matrix(0.21788963,0,0,0.21788963,96.788725,-75.443445)"
         d="m 13687.928,3878.5684 8.506,42.2109 25.134,124.7676 -25.547,27.7519 -44.173,-123.1718 -249.086,-15.7422 66.681,60.5683 79.465,72.1875 -8.605,76.2461 -222.17,36.2578 -165.848,-100.4668 -121.326,46.0215 -193.672,797.4922 252.117,260.0059 66.772,-45.6895 4.472,38.4297 151.956,353.5137 364.943,180.3261 364.945,-180.3261 151.91,-353.4434 4.92,-38.2207 66.369,45.4102 252.116,-260.0059 -193.672,-797.4922 -121.326,-46.0215 -165.858,100.4668 -110.918,-18.1074 35.281,-90.9199 -22.757,-14.9688 -94.086,92.5782 -19.909,-3.2539 55.692,-88.5977 z"
         style="color:#000000;font-style:normal;font-variant:normal;font-weight:normal;font-stretch:normal;font-size:medium;line-height:normal;font-family:sans-serif;font-variant-ligatures:normal;font-variant-position:normal;font-variant-caps:normal;font-variant-numeric:normal;font-variant-alternates:normal;font-feature-settings:normal;text-indent:0;text-align:start;text-decoration:none;text-decoration-line:none;text-decoration-style:solid;text-decoration-color:#000000;letter-spacing:normal;word-spacing:normal;text-transform:none;writing-mode:lr-tb;direction:ltr;text-orientation:mixed;dominant-baseline:auto;baseline-shift:baseline;text-anchor:start;white-space:normal;shape-padding:0;clip-rule:nonzero;display:inline;overflow:visible;visibility:visible;opacity:1;isolation:auto;mix-blend-mode:normal;color-interpolation:sRGB;color-interpolation-filters:linearRGB;solid-color:#000000;solid-opacity:1;vector-effect:none;fill:#ffffff;fill-opacity:1;fill-rule:nonzero;stroke:none;stroke-width:27.8649;stroke-linecap:butt;stroke-linejoin:miter;stroke-miterlimit:4;stroke-dasharray:none;stroke-dashoffset:0;stroke-opacity:1;paint-order:stroke fill markers;color-rendering:auto;image-rendering:auto;shape-rendering:auto;text-rendering:auto;enable-background:accumulate"
         inkscape:connector-curvature="0" />
      <path
         inkscape:export-ydpi="96"
         inkscape:export-xdpi="96"
         sodipodi:nodetypes="cccccccccccccccscccccccscsccccccccscsccccccccccccccccccccccccccccccccccccccccccccccccccccccccccccccccccccccccccccccccccccccccccccccccccccccccccccccccccccccccccccccccccccccccc"
         inkscape:connector-curvature="0"
         d="m 3173.5148,985.01615 -49.9373,27.47925 5.3008,-0.1824 c 5.0276,8.3289 15.6247,11.3758 24.3083,6.9892 8.3663,-4.2529 12.2531,-14.0727 9.0638,-22.89939 z m -188.6258,0 11.2628,11.38526 c -3.1902,8.82709 0.6968,18.64799 9.0639,22.90089 8.6836,4.3866 19.2805,1.3397 24.3081,-6.9892 l 5.3009,0.1824 z m 12.7203,-27.79021 c -21.107,0.155 -56.5337,4.90657 -56.5337,4.90657 v 15.84108 c 0,0 5.8853,3.38626 7.7493,6.0923 8.5261,12.37791 4.8573,30.68771 13.4035,43.05171 3.6171,5.2328 9.2653,9.0805 15.0417,11.7449 8.6534,3.9917 18.4983,5.16 28.0116,5.7202 9.3073,0.548 18.834,-0.05 27.8718,-2.3403 5.641,-1.4295 11.4677,-3.3416 15.9919,-7.0017 5.3396,-4.3198 8.8007,-10.6677 12.0229,-16.7331 4.6582,-8.7685 10.3157,-27.94413 10.3157,-27.94413 0,0 5.1138,-1.21876 7.7179,-1.21876 2.6042,0 7.7163,1.21876 7.7163,1.21876 0,0 5.6576,19.17563 10.3157,27.94413 3.2222,6.0654 6.6834,12.4133 12.023,16.7331 4.5241,3.6601 10.3508,5.5722 15.9918,7.0017 9.0378,2.2904 18.566,2.8883 27.8734,2.3403 9.5132,-0.5602 19.3565,-1.7285 28.01,-5.7202 5.7764,-2.6644 11.4246,-6.5121 15.0417,-11.7449 8.5462,-12.364 4.8773,-30.6738 13.4035,-43.05171 1.864,-2.70604 7.7493,-6.0923 7.7493,-6.0923 v -15.84108 c 0,0 -40.3082,-5.40617 -60.5497,-4.87357 -23.4854,0.61795 -46.4171,7.78154 -69.8587,9.34191 -2.5665,0.17081 -5.144,0 -7.7163,0 -2.5723,0 -5.1513,0.17081 -7.7179,0 -23.4416,-1.56037 -46.3733,-8.72396 -69.8587,-9.34191 -1.265,-0.0334 -2.6089,-0.0435 -4.016,-0.0331 z m -15.1955,7.76819 c 6.9292,0.0398 14.2376,1.18092 20.8308,1.37428 15.8285,0.46422 32.4942,0.87586 46.9264,7.3928 3.1005,1.40009 6.3895,3.44514 7.8593,6.51328 1.7934,3.74371 1.0506,8.3924 0.182,12.45174 -2.7204,12.71597 -6.2898,27.28347 -16.4834,35.35727 -9.4816,7.5099 -23.4287,7.3181 -35.5238,7.3928 -6.8455,0.043 -13.8314,-1.3189 -20.1571,-3.9359 -5.4592,-2.2585 -11.2676,-5.084 -14.7102,-9.8853 -6.8574,-9.5638 -7.3239,-22.4628 -9.2477,-34.0726 -0.5074,-3.0609 -0.9305,-6.20472 -0.589,-9.28854 0.3084,-2.7846 0.1975,-6.2801 2.3544,-8.06817 5.078,-4.20979 11.6289,-5.27144 18.5581,-5.23166 z m 193.5746,0 c 6.9293,-0.0398 13.4803,1.02187 18.5583,5.23166 2.1568,1.78807 2.0475,5.28357 2.3558,8.06817 0.3416,3.08382 -0.083,6.22764 -0.5905,9.28854 -1.9238,11.6098 -2.3888,24.5088 -9.2461,34.0726 -3.4426,4.8013 -9.2525,7.6268 -14.7118,9.8853 -6.3257,2.617 -13.31,3.9782 -20.1556,3.9359 -12.095,-0.075 -26.0438,0.1171 -35.5253,-7.3928 -10.1935,-8.0738 -13.7631,-22.6413 -16.4834,-35.35727 -0.8684,-4.05934 -1.6096,-8.70803 0.1839,-12.45174 1.4697,-3.06814 4.7571,-5.11319 7.8576,-6.51328 14.4321,-6.51694 31.0978,-6.92858 46.9263,-7.3928 6.5933,-0.1933 13.9016,-1.33449 20.8309,-1.37428 z m -131.1783,152.59917 v -8.1232 l 22.7209,-11.8615 h 9.4528 9.4528 l 22.7209,11.8615 v 8.1232 l -32.1737,18.619 z m 39.2654,-339.33863 5.7814,28.70266 -10.011,10.87484 -10.644,-29.67962 -43.6391,-2.75798 8.1191,7.37461 18.4649,16.7718 -2.3088,20.44135 -51.781,8.45139 -35.8286,-21.70412 -23.5558,8.93514 -41.4277,170.58428 51.9868,53.61238 15.4202,-10.5497 -7.4243,-5.7971 c -1.3036,-1.016 -2.2662,-2.4055 -2.7595,-3.983 l -0.677,-2.1737 -9.3843,6.4206 -32.6872,-37.52948 31.7779,-162.5428 18.7309,-10.54343 33.4224,19.62618 -11.1057,19.36863 -35.8568,56.92322 4.1197,33.95791 20.2497,-1.6287 -6.5478,-32.32921 37.2342,-70.99734 45.7515,-15.08089 -1.0884,9.64189 5.084,-10.95805 1.1544,-2.4894 9.1472,-19.71888 -10.7162,-10.93607 h 14.0097 l 12.3952,22.60717 20.3,-8.78592 -2.7234,-11.47951 11.7716,9.92305 -7.6362,18.69485 -0.8717,2.13285 -0.49,1.19995 15.3211,7.84044 2.7815,-3.23387 3.9265,-4.56572 1.6601,-1.93026 -0.9015,2.05432 -2.2962,5.22853 -4.4951,10.23559 -15.274,3.98931 18.7639,0.89684 5.3165,-13.70035 25.5898,8.43413 37.2342,70.99734 -6.4772,31.97739 20.223,1.62714 4.0757,-33.60453 -28.1467,-44.68353 -18.7843,-31.62717 33.3909,-19.60733 18.731,10.54343 31.7779,162.5428 -32.6873,37.52948 -5.7453,-3.9297 c -0.5166,1.4474 -1.4332,2.7185 -2.6433,3.6658 l -9.4927,7.4148 13.0564,8.932 51.9869,-53.61238 -41.4278,-170.58428 -23.5558,-8.93514 -35.8301,21.70412 -28.9681,-4.72908 9.042,-23.30142 -21.5974,21.25336 -10.3753,-1.69468 13.2291,-21.04602 z m -118.0399,262.13763 1.2863,11.046 32.4925,75.5929 77.1698,38.1311 77.1698,-38.1311 32.491,-75.5929 0.9408,-7.3111 -1.4544,1.1355 c -0.9884,0.774 -2.1426,1.3083 -3.3721,1.5612 l -22.0873,4.5108 -0.021,0.1036 -21.9318,70.768 -61.7356,30.0896 -61.7355,-30.0896 -21.9334,-70.768 -0.2121,-1.0476 -17.462,-3.5668 c -1.229,-0.2532 -2.3826,-0.7875 -3.3704,-1.5612 z"
         style="opacity:1;vector-effect:none;fill:#000000;fill-opacity:1;stroke:#000000;stroke-width:6.07147;stroke-linecap:butt;stroke-linejoin:miter;stroke-miterlimit:4;stroke-dasharray:none;stroke-dashoffset:0;stroke-opacity:1;paint-order:stroke fill markers"
         id="path630" />
      <path
         id="path632"
         style="opacity:1;vector-effect:none;fill:url(#linearGradient640);fill-opacity:1;stroke:#000000;stroke-width:0.804147;stroke-linecap:butt;stroke-linejoin:miter;stroke-miterlimit:4;stroke-dasharray:none;stroke-dashoffset:0;stroke-opacity:1;paint-order:stroke fill markers"
         d="m 3173.5147,981.22145 -49.9372,27.47915 5.3007,-0.1822 c 5.0277,8.3288 15.6247,11.3757 24.3083,6.9891 8.3664,-4.2529 12.2532,-14.0727 9.0639,-22.89936 z m -188.6257,0 11.2627,11.38525 c -3.1901,8.8271 0.6969,18.648 9.064,22.9009 8.6836,4.3866 19.2805,1.3397 24.3081,-6.9892 l 5.3008,0.1824 z m 12.7203,-27.79019 c -21.1069,0.155 -56.5337,4.90657 -56.5337,4.90657 v 15.84106 c 0,0 5.8853,3.38625 7.7493,6.09232 8.5262,12.37789 4.8573,30.68779 13.4035,43.05169 3.617,5.2329 9.2653,9.0805 15.0416,11.745 8.6535,3.9917 18.4984,5.1599 28.0117,5.7201 9.3073,0.548 18.834,-0.05 27.8718,-2.3402 5.641,-1.4296 11.4677,-3.3417 15.9918,-7.0017 5.3396,-4.3199 8.8007,-10.6678 12.023,-16.7332 4.6582,-8.7685 10.3156,-27.9441 10.3156,-27.9441 0,0 5.1138,-1.21877 7.718,-1.21877 2.6042,0 7.7163,1.21877 7.7163,1.21877 0,0 5.6576,19.1756 10.3157,27.9441 3.2222,6.0654 6.6834,12.4133 12.0229,16.7332 4.5242,3.66 10.3509,5.5721 15.9919,7.0017 9.0377,2.2903 18.5661,2.8882 27.8734,2.3402 9.5132,-0.5602 19.3565,-1.7284 28.01,-5.7201 5.7764,-2.6645 11.4246,-6.5121 15.0417,-11.745 8.5462,-12.3639 4.8772,-30.6738 13.4035,-43.05169 1.8639,-2.70607 7.7492,-6.09232 7.7492,-6.09232 v -15.84106 c 0,0 -40.3081,-5.40617 -60.5496,-4.87356 -23.4855,0.61795 -46.4171,7.78153 -69.8587,9.34191 -2.5666,0.17081 -5.1441,0 -7.7163,0 -2.5723,0 -5.1513,0.17081 -7.718,0 -23.4416,-1.56038 -46.3732,-8.72396 -69.8586,-9.34191 -1.265,-0.0334 -2.6089,-0.0435 -4.016,-0.0332 z m -15.1956,7.76819 c 6.9293,0.0398 14.2376,1.18092 20.8309,1.37428 15.8285,0.46423 32.4942,0.87586 46.9263,7.39283 3.1006,1.40007 6.3895,3.4451 7.8593,6.51323 1.7935,3.74372 1.0507,8.3924 0.182,12.45173 -2.7203,12.71598 -6.2898,27.28348 -16.4834,35.35728 -9.4816,7.51 -23.4286,7.3181 -35.5237,7.3928 -6.8456,0.042 -13.8314,-1.3189 -20.1572,-3.9359 -5.4592,-2.2584 -11.2675,-5.084 -14.7102,-9.8853 -6.8573,-9.5638 -7.3238,-22.46282 -9.2477,-34.07258 -0.5073,-3.06094 -0.9303,-6.20471 -0.589,-9.28856 0.3085,-2.78459 0.1976,-6.28009 2.3544,-8.06817 5.078,-4.20976 11.629,-5.27142 18.5582,-5.23164 z m 193.5747,0 c 6.9293,-0.0398 13.4802,1.02188 18.5582,5.23164 2.1569,1.78808 2.0476,5.28358 2.3559,8.06817 0.3416,3.08385 -0.084,6.22762 -0.5905,9.28856 -1.9239,11.60976 -2.3888,24.50878 -9.2462,34.07258 -3.4426,4.8013 -9.2524,7.6269 -14.7117,9.8853 -6.3257,2.617 -13.31,3.9782 -20.1556,3.9359 -12.095,-0.074 -26.0438,0.1171 -35.5253,-7.3928 -10.1935,-8.0738 -13.763,-22.6413 -16.4834,-35.35728 -0.8684,-4.05933 -1.6097,-8.70801 0.1838,-12.45173 1.4698,-3.06813 4.7571,-5.11316 7.8577,-6.51323 14.4322,-6.51697 31.0978,-6.9286 46.9263,-7.39283 6.5933,-0.1933 13.9016,-1.33449 20.8309,-1.37428 z m -131.1783,152.59925 v -8.1233 l 22.7209,-11.8616 h 9.4528 9.4528 l 22.7209,11.8616 v 8.1233 l -32.1737,18.6189 z m 39.2654,-339.3387 5.7813,28.70266 -10.0109,10.87483 -10.644,-29.67961 -43.6392,-2.75798 8.1191,7.37461 18.465,16.77179 -2.3088,20.44135 -51.781,8.45139 -35.8286,-21.70412 -23.5558,8.93514 -41.4277,170.58427 51.9868,53.61237 15.4201,-10.5496 -7.4242,-5.7971 c -1.3036,-1.016 -2.2663,-2.4056 -2.7595,-3.9831 l -0.6769,-2.1737 -9.3844,6.4205 -32.6873,-37.52937 31.778,-162.54279 18.7309,-10.54342 33.4224,19.62618 -11.1057,19.36863 -35.8569,56.92322 4.1197,33.9579 20.2497,-1.62869 -6.5477,-32.32921 37.2342,-70.99734 45.7515,-15.08089 -1.0884,9.64189 5.084,-10.95806 1.1544,-2.48939 9.1471,-19.71888 -10.7161,-10.93608 h 14.0097 l 12.3951,22.60718 20.3001,-8.78593 -2.7234,-11.47951 11.7715,9.92306 -7.6362,18.69485 -0.8716,2.13285 -0.4901,1.19995 15.3211,7.84043 2.7817,-3.23386 3.9264,-4.56573 1.6601,-1.93024 -0.9016,2.05431 -2.2961,5.22852 -4.4951,10.23559 -15.274,3.98931 18.7639,0.89684 5.3164,-13.70034 25.5899,8.43413 37.2341,70.99734 -6.4771,31.97738 20.223,1.62715 4.0757,-33.60453 -28.1467,-44.68353 -18.7843,-31.62717 33.3909,-19.60733 18.7309,10.54342 31.778,162.54279 -32.6873,37.52937 -5.7453,-3.9296 c -0.5167,1.4474 -1.4332,2.7185 -2.6433,3.6659 l -9.4927,7.4147 13.0564,8.932 51.9869,-53.61237 -41.4278,-170.58427 -23.5558,-8.93514 -35.8302,21.70412 -28.9681,-4.72907 9.0421,-23.30142 -21.5974,21.25336 -10.3754,-1.69468 13.2292,-21.04602 z m -118.04,262.1377 1.2864,11.046 32.4925,75.5929 77.1698,38.131 77.1698,-38.131 32.491,-75.5929 0.9407,-7.3112 -1.4543,1.1356 c -0.9884,0.7739 -2.1426,1.3082 -3.3721,1.5611 l -22.0873,4.5108 -0.022,0.1036 -21.9319,70.7681 -61.7355,30.0895 -61.7355,-30.0895 -21.9335,-70.7681 -0.2121,-1.0475 -17.4619,-3.5669 c -1.2289,-0.2532 -2.3826,-0.7874 -3.3705,-1.5612 z"
         inkscape:connector-curvature="0"
         sodipodi:nodetypes="cccccccccccccccscccccccscsccccccccscsccccccccccccccccccccccccccccccccccccccccccccccccccccccccccccccccccccccccccccccccccccccccccccccccccccccccccccccccccccccccccccccccccccccccc"
         inkscape:export-xdpi="96"
         inkscape:export-ydpi="96" />
      <path
         inkscape:export-ydpi="96"
         inkscape:export-xdpi="96"
         sodipodi:nodetypes="cccccccccccccccscccccccscsccccccccscsccccccccccccccccccccccccccccccccccccccccccccccccccccccccccccccccccccccccccccccccccccccccccccccccccccccccccccccccccccccccccccccccccccccccc"
         inkscape:connector-curvature="0"
         d="m 3173.5147,981.22145 -49.9372,27.47915 5.3007,-0.1822 c 5.0277,8.3288 15.6247,11.3757 24.3083,6.9891 8.3664,-4.2529 12.2532,-14.0727 9.0639,-22.89936 z m -188.6257,0 11.2627,11.38525 c -3.1901,8.8271 0.6969,18.648 9.064,22.9009 8.6836,4.3866 19.2805,1.3397 24.3081,-6.9892 l 5.3008,0.1824 z m 12.7203,-27.79019 c -21.1069,0.155 -56.5337,4.90657 -56.5337,4.90657 v 15.84106 c 0,0 5.8853,3.38625 7.7493,6.09232 8.5262,12.37789 4.8573,30.68779 13.4035,43.05169 3.617,5.2329 9.2653,9.0805 15.0416,11.745 8.6535,3.9917 18.4984,5.1599 28.0117,5.7201 9.3073,0.548 18.834,-0.05 27.8718,-2.3402 5.641,-1.4296 11.4677,-3.3417 15.9918,-7.0017 5.3396,-4.3199 8.8007,-10.6678 12.023,-16.7332 4.6582,-8.7685 10.3156,-27.9441 10.3156,-27.9441 0,0 5.1138,-1.21877 7.718,-1.21877 2.6042,0 7.7163,1.21877 7.7163,1.21877 0,0 5.6576,19.1756 10.3157,27.9441 3.2222,6.0654 6.6834,12.4133 12.0229,16.7332 4.5242,3.66 10.3509,5.5721 15.9919,7.0017 9.0377,2.2903 18.5661,2.8882 27.8734,2.3402 9.5132,-0.5602 19.3565,-1.7284 28.01,-5.7201 5.7764,-2.6645 11.4246,-6.5121 15.0417,-11.745 8.5462,-12.3639 4.8772,-30.6738 13.4035,-43.05169 1.8639,-2.70607 7.7492,-6.09232 7.7492,-6.09232 v -15.84106 c 0,0 -40.3081,-5.40617 -60.5496,-4.87356 -23.4855,0.61795 -46.4171,7.78153 -69.8587,9.34191 -2.5666,0.17081 -5.1441,0 -7.7163,0 -2.5723,0 -5.1513,0.17081 -7.718,0 -23.4416,-1.56038 -46.3732,-8.72396 -69.8586,-9.34191 -1.265,-0.0334 -2.6089,-0.0435 -4.016,-0.0332 z m -15.1956,7.76819 c 6.9293,0.0398 14.2376,1.18092 20.8309,1.37428 15.8285,0.46423 32.4942,0.87586 46.9263,7.39283 3.1006,1.40007 6.3895,3.4451 7.8593,6.51323 1.7935,3.74372 1.0507,8.3924 0.182,12.45173 -2.7203,12.71598 -6.2898,27.28348 -16.4834,35.35728 -9.4816,7.51 -23.4286,7.3181 -35.5237,7.3928 -6.8456,0.042 -13.8314,-1.3189 -20.1572,-3.9359 -5.4592,-2.2584 -11.2675,-5.084 -14.7102,-9.8853 -6.8573,-9.5638 -7.3238,-22.46282 -9.2477,-34.07258 -0.5073,-3.06094 -0.9303,-6.20471 -0.589,-9.28856 0.3085,-2.78459 0.1976,-6.28009 2.3544,-8.06817 5.078,-4.20976 11.629,-5.27142 18.5582,-5.23164 z m 193.5747,0 c 6.9293,-0.0398 13.4802,1.02188 18.5582,5.23164 2.1569,1.78808 2.0476,5.28358 2.3559,8.06817 0.3416,3.08385 -0.084,6.22762 -0.5905,9.28856 -1.9239,11.60976 -2.3888,24.50878 -9.2462,34.07258 -3.4426,4.8013 -9.2524,7.6269 -14.7117,9.8853 -6.3257,2.617 -13.31,3.9782 -20.1556,3.9359 -12.095,-0.074 -26.0438,0.1171 -35.5253,-7.3928 -10.1935,-8.0738 -13.763,-22.6413 -16.4834,-35.35728 -0.8684,-4.05933 -1.6097,-8.70801 0.1838,-12.45173 1.4698,-3.06813 4.7571,-5.11316 7.8577,-6.51323 14.4322,-6.51697 31.0978,-6.9286 46.9263,-7.39283 6.5933,-0.1933 13.9016,-1.33449 20.8309,-1.37428 z m -131.1783,152.59925 v -8.1233 l 22.7209,-11.8616 h 9.4528 9.4528 l 22.7209,11.8616 v 8.1233 l -32.1737,18.6189 z m 39.2654,-339.3387 5.7813,28.70266 -10.0109,10.87483 -10.644,-29.67961 -43.6392,-2.75798 8.1191,7.37461 18.465,16.77179 -2.3088,20.44135 -51.781,8.45139 -35.8286,-21.70412 -23.5558,8.93514 -41.4277,170.58427 51.9868,53.61237 15.4201,-10.5496 -7.4242,-5.7971 c -1.3036,-1.016 -2.2663,-2.4056 -2.7595,-3.9831 l -0.6769,-2.1737 -9.3844,6.4205 -32.6873,-37.52937 31.778,-162.54279 18.7309,-10.54342 33.4224,19.62618 -11.1057,19.36863 -35.8569,56.92322 4.1197,33.9579 20.2497,-1.62869 -6.5477,-32.32921 37.2342,-70.99734 45.7515,-15.08089 -1.0884,9.64189 5.084,-10.95806 1.1544,-2.48939 9.1471,-19.71888 -10.7161,-10.93608 h 14.0097 l 12.3951,22.60718 20.3001,-8.78593 -2.7234,-11.47951 11.7715,9.92306 -7.6362,18.69485 -0.8716,2.13285 -0.4901,1.19995 15.3211,7.84043 2.7817,-3.23386 3.9264,-4.56573 1.6601,-1.93024 -0.9016,2.05431 -2.2961,5.22852 -4.4951,10.23559 -15.274,3.98931 18.7639,0.89684 5.3164,-13.70034 25.5899,8.43413 37.2341,70.99734 -6.4771,31.97738 20.223,1.62715 4.0757,-33.60453 -28.1467,-44.68353 -18.7843,-31.62717 33.3909,-19.60733 18.7309,10.54342 31.778,162.54279 -32.6873,37.52937 -5.7453,-3.9296 c -0.5167,1.4474 -1.4332,2.7185 -2.6433,3.6659 l -9.4927,7.4147 13.0564,8.932 51.9869,-53.61237 -41.4278,-170.58427 -23.5558,-8.93514 -35.8302,21.70412 -28.9681,-4.72907 9.0421,-23.30142 -21.5974,21.25336 -10.3754,-1.69468 13.2292,-21.04602 z m -118.04,262.1377 1.2864,11.046 32.4925,75.5929 77.1698,38.131 77.1698,-38.131 32.491,-75.5929 0.9407,-7.3112 -1.4543,1.1356 c -0.9884,0.7739 -2.1426,1.3082 -3.3721,1.5611 l -22.0873,4.5108 -0.022,0.1036 -21.9319,70.7681 -61.7355,30.0895 -61.7355,-30.0895 -21.9335,-70.7681 -0.2121,-1.0475 -17.4619,-3.5669 c -1.2289,-0.2532 -2.3826,-0.7874 -3.3705,-1.5612 z"
         style="opacity:1;vector-effect:none;fill:none;fill-opacity:1;stroke:url(#linearGradient642);stroke-width:3.03573;stroke-linecap:butt;stroke-linejoin:miter;stroke-miterlimit:4;stroke-dasharray:none;stroke-dashoffset:0;stroke-opacity:1;paint-order:stroke fill markers"
         id="path634" />
    </g>
  </g>
</svg>
